<?xml version="1.0" encoding="UTF-8"?>
<svg width="77" height="21" fill="none" version="1.1" viewBox="0 0 77 21" xmlns="http://www.w3.org/2000/svg" xmlns:cc="http://creativecommons.org/ns#" xmlns:dc="http://purl.org/dc/elements/1.1/" xmlns:rdf="http://www.w3.org/1999/02/22-rdf-syntax-ns#">
 <metadata>
  <rdf:RDF>
   <cc:Work rdf:about="">
    <dc:format>image/svg+xml</dc:format>
    <dc:type rdf:resource="http://purl.org/dc/dcmitype/StillImage"/>
    <dc:title/>
   </cc:Work>
  </rdf:RDF>
 </metadata>
 <g clip-path="url(#clip0)">
  <path d="m27.695 8.2324h-3.5801v3.7676h-1.125v-8.5312h5.2852v0.92578h-4.1602v2.918h3.5801v0.91992zm2.9356 3.7676h-1.084v-9h1.084v9zm5.6543 0c-0.0625-0.125-0.1133-0.3477-0.1524-0.668-0.5039 0.5235-1.1055 0.7852-1.8047 0.7852-0.625 0-1.1386-0.1758-1.541-0.5274-0.3984-0.3554-0.5976-0.8046-0.5976-1.3476 0-0.66017 0.25-1.1719 0.75-1.5352 0.5039-0.36719 1.2109-0.55078 2.121-0.55078h1.0547v-0.49805c0-0.3789-0.1132-0.67968-0.3398-0.90234-0.2266-0.22656-0.5606-0.33984-1.002-0.33984-0.3867 0-0.7109 0.09765-0.9726 0.29296-0.2617 0.19532-0.3926 0.43164-0.3926 0.70899h-1.0898c0-0.31641 0.1113-0.62109 0.3339-0.91406 0.2266-0.29688 0.5313-0.53125 0.9141-0.70313 0.3867-0.17187 0.8106-0.25781 1.2715-0.25781 0.7305 0 1.3027 0.18359 1.7168 0.55078 0.4141 0.36328 0.6289 0.86523 0.6445 1.5059v2.918c0 0.582 0.0742 1.0449 0.2227 1.3886v0.0938h-1.1367zm-1.7989-0.8262c0.3399 0 0.6621-0.0879 0.9668-0.2636 0.3047-0.1758 0.5254-0.4043 0.6621-0.6856v-1.3008h-0.8496c-1.3281 0-1.9922 0.38867-1.9922 1.166 0 0.3399 0.1133 0.6055 0.3399 0.7969 0.2265 0.1914 0.5176 0.2871 0.873 0.2871zm5.5899 0.8262h-1.084v-6.3398h1.084v6.3398zm-1.1719-8.0215c0-0.17579 0.0527-0.32422 0.1582-0.44532 0.1094-0.12109 0.2695-0.18164 0.4805-0.18164 0.2109 0 0.3711 0.06055 0.4804 0.18164 0.1094 0.1211 0.1641 0.26953 0.1641 0.44532 0 0.17578-0.0547 0.32226-0.1641 0.43945-0.1093 0.11719-0.2695 0.17578-0.4804 0.17578-0.211 0-0.3711-0.05859-0.4805-0.17578-0.1055-0.11719-0.1582-0.26367-0.1582-0.43945zm5.9766 2.6543c-0.1641-0.02734-0.3418-0.04101-0.5332-0.04101-0.711 0-1.1934 0.30273-1.4473 0.9082v4.5h-1.084v-6.3398h1.0547l0.0176 0.73242c0.3554-0.56641 0.8593-0.84961 1.5117-0.84961 0.2109 0 0.3711 0.02734 0.4805 0.08203v1.0078zm4.0664 0c-0.1641-0.02734-0.3418-0.04101-0.5332-0.04101-0.711 0-1.1934 0.30273-1.4473 0.9082v4.5h-1.084v-6.3398h1.0547l0.0176 0.73242c0.3554-0.56641 0.8594-0.84961 1.5117-0.84961 0.2109 0 0.3711 0.02734 0.4805 0.08203v1.0078zm3.9961 3.8731 2.4375-7.0372h1.2304l-3.164 8.5312h-0.9961l-3.1582-8.5312h1.2246l2.4258 7.0372zm8.291 1.4941c-0.0625-0.125-0.1133-0.3477-0.1524-0.668-0.5039 0.5235-1.1054 0.7852-1.8047 0.7852-0.625 0-1.1386-0.1758-1.541-0.5274-0.3984-0.3554-0.5976-0.8046-0.5976-1.3476 0-0.66017 0.25-1.1719 0.75-1.5352 0.5039-0.36719 1.2109-0.55078 2.1211-0.55078h1.0547v-0.49805c0-0.3789-0.1133-0.67968-0.3399-0.90234-0.2266-0.22656-0.5605-0.33984-1.0019-0.33984-0.3868 0-0.711 0.09765-0.9727 0.29296-0.2617 0.19532-0.3926 0.43164-0.3926 0.70899h-1.0898c0-0.31641 0.1113-0.62109 0.334-0.91406 0.2265-0.29688 0.5312-0.53125 0.914-0.70313 0.3867-0.17187 0.8106-0.25781 1.2715-0.25781 0.7305 0 1.3027 0.18359 1.7168 0.55078 0.4141 0.36328 0.6289 0.86523 0.6445 1.5059v2.918c0 0.582 0.0743 1.0449 0.2227 1.3886v0.0938h-1.1367zm-1.7989-0.8262c0.3399 0 0.6622-0.0879 0.9668-0.2636 0.3047-0.1758 0.5254-0.4043 0.6622-0.6856v-1.3008h-0.8497c-1.3281 0-1.9921 0.38867-1.9921 1.166 0 0.3399 0.1132 0.6055 0.3398 0.7969s0.5176 0.2871 0.873 0.2871zm8.3262 0.1992c-0.4219 0.4961-1.041 0.7442-1.8574 0.7442-0.6758 0-1.1914-0.1953-1.5469-0.586-0.3515-0.3945-0.5293-0.9765-0.5332-1.746v-4.125h1.084v4.0957c0 0.96094 0.3906 1.4414 1.1719 1.4414 0.8281 0 1.3789-0.3086 1.6523-0.9258v-4.6113h1.084v6.3398h-1.0312l-0.0235-0.627zm3.8848 0.627h-1.084v-9h1.084v9zm3.2109-7.875v1.5352h1.1836v0.83789h-1.1836v3.9316c0 0.2539 0.0528 0.4453 0.1582 0.5742 0.1055 0.125 0.2852 0.1875 0.5391 0.1875 0.125 0 0.2969-0.0234 0.5156-0.0703v0.8789c-0.2851 0.0781-0.5625 0.1172-0.832 0.1172-0.4844 0-0.8496-0.1465-1.0957-0.4395-0.2461-0.2929-0.3692-0.7089-0.3692-1.248v-3.9316h-1.1543v-0.83789h1.1543v-1.5352h1.084z" fill="#000"/>
  <circle cx="8" cy="8" r="8" fill="#fff"/>
  <path d="m8 16c4.4183 0 8-3.5817 8-8 0-4.4183-3.5817-8-8-8-4.4183 0-8 3.5817-8 8 0 4.4183 3.5817 8 8 8zm0.26933-7.0823 0.01087 4.6995c3.2e-4 0.1383-0.1117 0.2506-0.25 0.2506h-0.75679c-0.13755 0-0.24926-0.1111-0.25-0.2487l-0.02538-4.6938v-0.03801h-0.07254l-0.85971-0.00886c-0.13706-0.00141-0.24742-0.11292-0.24742-0.24999v-0.52736c0-0.13874 0.11297-0.25095 0.25171-0.25l0.85924 0.00588h0.07254l0.01145-0.43342-0.94574-0.00301c-0.13776-4.3e-4 -0.2492-0.11223-0.2492-0.24999v-0.51751c0-0.13745 0.11095-0.24911 0.2484-0.24999l0.93891-0.00602s0-1.1862 0.0649-2.4332c0.06235-1.2236 1.0056-2.0682 2.877-1.6911 0.13123 0.02645 0.21363 0.15604 0.18723 0.28734l-0.1327 0.66101c-0.02862 0.14242-0.17237 0.23219-0.3159 0.2098-0.42774-0.06671-1.2372-0.09738-1.3405 0.5976-0.07254 0.47144-0.06872 1.3687-0.05345 2.3534l1.3014-0.01273c0.13902-0.00136 0.25245 0.11096 0.25245 0.24999v0.53352c0 0.13734-0.1108 0.24897-0.24813 0.24999l-1.279 0.00956-0.00764 0.45243h1.301c0.13769 0 0.24947 0.11134 0.24999 0.24904l0.00191 0.49854c5.3e-4 0.13749-0.11007 0.24961-0.24755 0.25095l-1.3091 0.01278h-0.03436v0.04182h-0.00381zm6.6037-0.91772c0 3.7958-3.077 6.8728-6.8727 6.8728-3.7957 0-6.8727-3.077-6.8727-6.8728 0-3.7957 3.077-6.8727 6.8727-6.8727 3.7957 0 6.8727 3.077 6.8727 6.8727zm0.4 0c0 4.0166-3.2561 7.2728-7.2727 7.2728-4.0166 0-7.2727-3.2561-7.2727-7.2728 0-4.0166 3.2561-7.2727 7.2727-7.2727 4.0166 0 7.2727 3.2561 7.2727 7.2727z" clip-rule="evenodd" fill="url(#paint0_linear)" fill-rule="evenodd"/>
 </g>
 <defs>
  <linearGradient id="paint0_linear" x1="8" x2="8" y2="16" gradientUnits="userSpaceOnUse">
   <stop stop-color="#F46868" offset="0"/>
   <stop stop-color="#D94646" offset="1"/>
  </linearGradient>
  <clipPath id="clip0">
   <rect width="77" height="21" fill="#fff"/>
  </clipPath>
 </defs>
</svg>
