<svg width="437" height="321" viewBox="0 0 437 321" fill="none" xmlns="http://www.w3.org/2000/svg">
<path d="M0 277.476C0 300.436 18.6129 320.016 41.573 320.016C50.5817 320.016 59.9017 316.183 66.7102 311.314C84.1266 297.779 89.9137 291.011 100.549 291.011C111.184 291.011 116.971 297.779 134.387 311.314C141.196 316.183 150.516 320.016 159.524 320.016C182.484 320.016 202.064 300.436 202.064 277.476C202.064 268.467 198.232 259.147 193.363 252.339C179.827 234.922 173.06 229.135 173.06 218.5C173.06 207.865 186.595 191.429 189.012 189.012C191.429 186.595 207.865 173.06 218.5 173.06C229.135 173.06 234.922 179.828 252.338 193.363C259.147 198.232 268.467 202.064 277.476 202.064C300.436 202.064 319.049 182.485 319.049 159.524C319.049 136.564 300.436 116.985 277.476 116.985C268.467 116.985 259.147 120.817 252.338 125.686C234.922 139.221 229.135 145.989 218.5 145.989C207.865 145.989 202.078 139.221 184.661 125.686C177.853 120.817 168.533 116.985 159.524 116.985C136.564 116.985 116.985 136.564 116.985 159.524C116.985 168.533 120.817 177.853 125.686 184.662C139.221 202.078 145.989 207.865 145.989 218.5C145.989 229.135 133.42 244.604 130.036 247.988C126.653 251.372 111.184 263.94 100.549 263.94C89.9137 263.94 84.1266 257.173 66.7102 243.637C59.9017 238.768 50.5817 234.936 41.573 234.936C18.6129 234.936 0 254.516 0 277.476Z" fill="#5990DC" fill-opacity="0.5"/>
<circle cx="277.476" cy="277.476" r="41.573" transform="rotate(-90 277.476 277.476)" fill="#BBCFE7" fill-opacity="0.5"/>
<circle cx="41.573" cy="159.524" r="41.573" transform="rotate(-90 41.573 159.524)" fill="#BBCFE7" fill-opacity="0.5"/>
<circle cx="395.427" cy="159.524" r="41.573" transform="rotate(-90 395.427 159.524)" fill="#BBCFE7" fill-opacity="0.5"/>
<circle cx="41.573" cy="41.573" r="41.573" transform="rotate(-90 41.573 41.573)" fill="#BBCFE7" fill-opacity="0.5"/>
<circle cx="159.524" cy="41.573" r="41.573" transform="rotate(-90 159.524 41.573)" fill="#BBCFE7" fill-opacity="0.5"/>
<circle cx="277.476" cy="41.573" r="41.573" transform="rotate(-90 277.476 41.573)" fill="#BBCFE7" fill-opacity="0.5"/>
<path d="M54.0421 120.438H53.0421V121.438V155.189C53.0421 156.294 52.1467 157.189 51.0421 157.189H35.9612C34.8566 157.189 33.9612 156.294 33.9612 155.189V57.0621C33.9612 55.9575 34.8566 55.0621 35.9612 55.0621H96.2592C97.3637 55.0621 98.2592 55.9575 98.2592 57.0621V71.4374H54.0421H53.0421V72.4374V103.063V104.063H54.0421H90.0101V120.438H54.0421ZM206.38 137.364V137.405L206.383 137.447C206.589 139.92 207.008 141.854 207.744 143.084L207.756 143.104L207.769 143.124C208.195 143.763 208.817 144.262 209.565 144.65C210.688 145.233 211.358 146.138 211.322 147.052L210.925 157.106C210.882 158.187 209.998 159.017 208.955 158.987C205.115 158.878 201.972 158.538 199.508 157.98C196.596 157.299 193.603 155.928 190.527 153.84L190.051 153.517L189.532 153.766C182.22 157.28 174.882 159.027 167.51 159.027C159.787 159.027 154.174 156.982 150.479 153.062C146.773 149.132 144.832 143.145 144.832 134.914C144.832 126.903 146.978 121.505 151.01 118.403L151.016 118.398L151.022 118.394C155.171 115.105 161.655 113.089 170.632 112.483L170.64 112.482L186.985 111.257L187.91 111.188V110.26V105.513C187.91 102.272 187.193 99.728 185.407 98.3094C183.711 96.8627 181.133 96.2442 177.897 96.2442H177.876L177.855 96.2451L152.132 97.3423C151.029 97.3894 150.096 96.5332 150.049 95.4299L149.669 86.5863C149.629 85.6473 150.245 84.8168 151.138 84.5917C161.21 82.0526 170.739 80.7876 179.73 80.7876C189.514 80.7876 196.273 82.8171 200.274 86.636C204.271 90.4518 206.38 96.6624 206.38 105.513V137.364ZM187.91 124.501V123.409L186.822 123.505L172.921 124.73L172.92 124.73C169.914 124.999 167.508 125.955 165.861 127.724C164.211 129.496 163.454 131.942 163.454 134.914C163.454 137.848 164.104 140.236 165.578 141.895C167.073 143.576 169.258 144.336 171.94 144.336C175.914 144.336 180.228 143.707 184.877 142.464L187.168 141.852L187.91 141.653V140.886V124.501ZM281.012 89.7409V91.4811L282.515 90.6049C289.851 86.33 296.726 83.3346 303.143 81.5999C304.295 81.2887 305.453 82.1736 305.453 83.4585V97.9898C305.453 98.9439 304.776 99.7716 303.83 99.967C300.555 100.642 297.477 101.352 294.594 102.095L294.587 102.097C291.113 103.018 287.891 103.941 284.923 104.865L284.906 104.87L284.889 104.876L281.834 105.948L281.165 106.182V106.891V155.189C281.165 156.294 280.269 157.189 279.165 157.189H264.695C263.59 157.189 262.695 156.294 262.695 155.189V84.6251C262.695 83.5206 263.59 82.6251 264.695 82.6251H279.012C280.116 82.6251 281.012 83.5206 281.012 84.6251V89.7409ZM335.558 89.7409V91.4811L337.061 90.6049C344.397 86.33 351.272 83.3346 357.689 81.5999C358.841 81.2887 360 82.1736 360 83.4585V97.9898C360 98.9439 359.323 99.7716 358.376 99.967C355.102 100.642 352.023 101.352 349.14 102.095L349.133 102.097C345.659 103.018 342.438 103.941 339.469 104.865L339.452 104.87L339.435 104.876L336.38 105.948L335.711 106.182V106.891V155.189C335.711 156.294 334.815 157.189 333.711 157.189H319.241C318.136 157.189 317.241 156.294 317.241 155.189V84.6251C317.241 83.5206 318.136 82.6251 319.241 82.6251H333.558C334.663 82.6251 335.558 83.5206 335.558 84.6251V89.7409ZM130.377 155.189C130.377 156.294 129.482 157.189 128.377 157.189H113.907C112.803 157.189 111.907 156.294 111.907 155.189V53.9995C111.907 52.8949 112.803 51.9995 113.907 51.9995H128.377C129.482 51.9995 130.377 52.8949 130.377 53.9995V155.189ZM244.072 155.189C244.072 156.294 243.177 157.189 242.072 157.189H227.603C226.498 157.189 225.603 156.294 225.603 155.189V84.6251C225.603 83.5206 226.498 82.6251 227.603 82.6251H242.072C243.177 82.6251 244.072 83.5206 244.072 84.6251V155.189ZM244.072 68.8249C244.072 69.9295 243.177 70.8249 242.072 70.8249H227.603C226.498 70.8249 225.603 69.9295 225.603 68.8249V53.9995C225.603 52.8949 226.498 51.9995 227.603 51.9995H242.072C243.177 51.9995 244.072 52.8949 244.072 53.9995V68.8249Z" fill="url(#paint0_linear)" stroke="url(#paint1_linear)" stroke-width="2"/>
<path d="M71.0499 257.814H71.8616L72.0285 257.02L89.5534 173.651C89.748 172.725 90.5646 172.062 91.5106 172.062H107.451C108.738 172.062 109.69 173.26 109.399 174.514L86.654 272.641C86.4438 273.547 85.6362 274.189 84.7056 274.189H50.52C49.5895 274.189 48.7818 273.547 48.5717 272.641L25.8263 174.514C25.5357 173.26 26.4877 172.062 27.7747 172.062H43.7151C44.6611 172.062 45.4777 172.725 45.6723 173.651L63.1971 257.02L63.3641 257.814H64.1757H71.0499ZM178.287 254.364V254.405L178.29 254.447C178.496 256.92 178.914 258.854 179.651 260.084L179.663 260.104L179.676 260.124C180.101 260.763 180.724 261.262 181.471 261.65C182.595 262.233 183.265 263.138 183.228 264.052L182.831 274.106C182.789 275.187 181.905 276.017 180.861 275.987C177.021 275.878 173.878 275.538 171.414 274.98C168.502 274.299 165.509 272.928 162.434 270.84L161.958 270.517L161.439 270.766C154.127 274.28 146.789 276.027 139.416 276.027C131.693 276.027 126.081 273.982 122.385 270.062C118.68 266.132 116.738 260.145 116.738 251.914C116.738 243.903 118.884 238.505 122.917 235.403L122.922 235.398L122.928 235.394C127.077 232.105 133.562 230.089 142.539 229.483L142.546 229.482L158.891 228.257L159.817 228.188V227.26V222.513C159.817 219.272 159.099 216.728 157.314 215.309C155.618 213.863 153.04 213.244 149.804 213.244H149.783L149.761 213.245L124.039 214.342C122.935 214.389 122.003 213.533 121.955 212.43L121.576 203.586C121.536 202.647 122.151 201.817 123.044 201.592C133.116 199.053 142.646 197.788 151.637 197.788C161.42 197.788 168.18 199.817 172.18 203.636C176.177 207.452 178.287 213.662 178.287 222.513V254.364ZM159.817 241.501V240.409L158.729 240.505L144.828 241.73L144.826 241.73C141.82 241.999 139.415 242.955 137.768 244.724C136.118 246.496 135.361 248.942 135.361 251.914C135.361 254.848 136.01 257.236 137.485 258.895C138.979 260.576 141.164 261.336 143.846 261.336C147.82 261.336 152.135 260.707 156.784 259.464L159.075 258.852L159.817 258.653V257.886V241.501ZM241.868 256.851L242.573 256.633V255.895V201.625C242.573 200.521 243.469 199.625 244.573 199.625H259.043C260.148 199.625 261.043 200.521 261.043 201.625V272.189C261.043 273.294 260.148 274.189 259.043 274.189H244.726C243.622 274.189 242.726 273.294 242.726 272.189V270.902V269.188L241.234 270.031C234.083 274.069 227.892 276.027 222.631 276.027C217.416 276.027 213.178 275.322 209.875 273.959C206.593 272.604 204.002 270.485 202.077 267.591C200.139 264.677 198.752 260.889 197.953 256.187C197.151 251.358 196.745 245.547 196.745 238.745V201.625C196.745 200.521 197.641 199.625 198.745 199.625H213.215C214.32 199.625 215.215 200.521 215.215 201.625V239.051C215.215 242.843 215.317 246.037 215.524 248.624L215.526 248.647L215.528 248.669C215.841 251.179 216.37 253.281 217.142 254.939L217.153 254.963L217.165 254.987C218.063 256.673 219.279 257.92 220.836 258.64L220.849 258.646L220.862 258.651C222.459 259.338 224.493 259.651 226.908 259.651C231.392 259.651 235.724 258.92 239.9 257.458L241.868 256.851ZM341.061 215.082H340.061V216.082V247.473V247.482V247.491V247.5V247.509V247.518V247.527V247.536V247.545V247.554V247.562V247.571V247.58V247.589V247.598V247.607V247.616V247.625V247.634V247.643V247.651V247.66V247.669V247.678V247.687V247.696V247.705V247.714V247.722V247.731V247.74V247.749V247.758V247.767V247.775V247.784V247.793V247.802V247.811V247.819V247.828V247.837V247.846V247.854V247.863V247.872V247.881V247.89V247.898V247.907V247.916V247.924V247.933V247.942V247.951V247.959V247.968V247.977V247.986V247.994V248.003V248.012V248.02V248.029V248.038V248.046V248.055V248.064V248.072V248.081V248.09V248.098V248.107V248.116V248.124V248.133V248.141V248.15V248.159V248.167V248.176V248.184V248.193V248.202V248.21V248.219V248.227V248.236V248.244V248.253V248.262V248.27V248.279V248.287V248.296V248.304V248.313V248.321V248.33V248.338V248.347V248.355V248.364V248.372V248.381V248.389V248.398V248.406V248.415V248.423V248.432V248.44V248.449V248.457V248.465V248.474V248.482V248.491V248.499V248.508V248.516V248.524V248.533V248.541V248.55V248.558V248.566V248.575V248.583V248.592V248.6V248.608V248.617V248.625V248.633V248.642V248.65V248.658V248.667V248.675V248.683V248.692V248.7V248.708V248.717V248.725V248.733V248.741V248.75V248.758V248.766V248.775V248.783V248.791V248.799V248.808V248.816V248.824V248.832V248.841V248.849V248.857V248.865V248.873V248.882V248.89V248.898V248.906V248.914V248.923V248.931V248.939V248.947V248.955V248.963V248.972V248.98V248.988V248.996V249.004V249.012V249.02V249.029V249.037V249.045V249.053V249.061V249.069V249.077V249.085V249.093V249.101V249.11V249.118V249.126V249.134V249.142V249.15V249.158V249.166V249.174V249.182V249.19V249.198V249.206V249.214V249.222V249.23V249.238V249.246V249.254V249.262V249.27V249.278V249.286V249.294V249.302V249.31V249.318V249.326V249.334V249.342V249.35V249.358V249.366V249.373V249.381V249.389V249.397V249.405V249.413V249.421V249.429V249.437V249.445V249.452V249.46V249.468V249.476V249.484V249.492V249.5V249.507V249.515V249.523V249.531V249.539V249.547V249.554V249.562V249.57V249.578V249.586V249.593V249.601V249.609V249.617V249.625V249.632V249.64V249.648V249.656V249.663V249.671V249.679V249.687V249.694V249.702V249.71V249.717V249.725V249.733V249.741V249.748V249.756V249.764V249.771V249.779V249.787V249.794V249.802V249.81V249.817V249.825V249.833V249.84V249.848V249.856V249.863V249.871V249.878V249.886V249.894V249.901V249.909V249.916V249.924V249.932V249.939V249.947V249.954V249.962V249.97V249.977V249.985V249.992V250V250.007V250.015V250.022V250.03V250.037V250.045V250.052V250.06V250.067V250.075V250.082V250.09V250.097V250.105V250.112V250.12V250.127V250.135V250.142V250.15V250.157V250.165V250.172V250.179V250.187V250.194V250.202V250.209V250.216V250.224V250.231V250.239V250.246V250.253V250.261V250.268V250.276V250.283V250.29V250.298V250.305V250.312V250.32V250.327V250.334V250.342V250.349V250.356V250.364V250.371V250.378V250.386V250.393V250.4V250.408V250.415V250.422V250.429V250.437V250.444V250.451V250.458V250.466V250.473V250.48V250.487V250.495V250.502V250.509V250.516V250.523V250.531V250.538V250.545V250.552V250.559V250.567V250.574V250.581V250.588V250.595V250.603V250.61V250.617V250.624V250.631V250.638V250.645V250.653V250.66V250.667V250.674V250.681V250.688V250.695V250.702V250.709V250.716V250.724V250.731V250.738V250.745V250.752V250.759V250.766V250.773V250.78V250.787V250.794V250.801V250.808V250.815V250.822V250.829V250.836V250.843V250.85V250.857V250.864V250.871V250.878V250.885V250.892V250.899V250.906V250.913V250.92V250.927V250.934V250.941V250.948V250.955V250.962V250.968V250.975V250.982V250.989V250.996V251.003V251.01V251.017V251.024V251.031V251.037V251.044V251.051V251.058V251.065V251.072V251.079V251.085V251.092V251.099V251.106V251.113V251.119V251.126V251.133V251.14V251.147V251.153V251.16V251.167V251.174V251.181V251.187V251.194V251.201V251.208V251.214V251.221V251.228V251.235V251.241V251.248V251.255V251.262V251.268V251.275V251.282V251.288V251.295V251.302V251.308V251.315V251.322V251.328V251.335V251.342V251.348V251.355V251.362V251.368V251.375V251.382V251.388V251.395V251.402V251.408V251.415V251.421V251.428V251.435V251.441V251.448V251.454V251.504L340.066 251.554C340.168 252.58 340.272 253.419 340.379 254.061C340.614 255.588 341.268 256.906 342.339 257.979C343.526 259.169 345.321 259.651 347.477 259.651H347.49L347.503 259.651L356.201 259.422C357.283 259.393 358.19 260.229 358.251 261.309L358.863 272.248C358.918 273.228 358.257 274.093 357.314 274.29C351.723 275.457 347.437 276.027 344.422 276.027C339.905 276.027 336.201 275.523 333.282 274.547L333.267 274.542L333.253 274.538C330.368 273.67 328.101 272.192 326.407 270.116C324.7 268.025 323.431 265.226 322.64 261.667C321.944 257.973 321.591 253.4 321.591 247.932V216.082V215.082H320.591H314.578C313.474 215.082 312.578 214.186 312.578 213.082V201.625C312.578 200.521 313.474 199.625 314.578 199.625H320.591H321.591V198.625V180.34C321.591 179.236 322.486 178.34 323.591 178.34H338.061C339.165 178.34 340.061 179.236 340.061 180.34V198.625V199.625H341.061H356.85C357.955 199.625 358.85 200.521 358.85 201.625V213.082C358.85 214.186 357.955 215.082 356.85 215.082H341.061ZM299.04 272.189C299.04 273.294 298.145 274.189 297.04 274.189H282.57C281.466 274.189 280.57 273.294 280.57 272.189V171C280.57 169.895 281.466 169 282.57 169H297.04C298.145 169 299.04 169.895 299.04 171V272.189Z" fill="url(#paint2_linear)" stroke="url(#paint3_linear)" stroke-width="2"/>
<defs>
<linearGradient id="paint0_linear" x1="197" y1="-28.5005" x2="197" y2="106" gradientUnits="userSpaceOnUse">
<stop stop-color="#C0C0C0"/>
<stop offset="1"/>
</linearGradient>
<linearGradient id="paint1_linear" x1="23.9998" y1="164" x2="361" y2="164" gradientUnits="userSpaceOnUse">
<stop stop-color="#BBCFE7"/>
<stop offset="1" stop-color="#0052C4"/>
</linearGradient>
<linearGradient id="paint2_linear" x1="192" y1="114.5" x2="192" y2="223" gradientUnits="userSpaceOnUse">
<stop stop-color="#BFBFBF"/>
<stop offset="1"/>
</linearGradient>
<linearGradient id="paint3_linear" x1="23.9998" y1="164.027" x2="361" y2="164.027" gradientUnits="userSpaceOnUse">
<stop stop-color="#BBCFE7"/>
<stop offset="1" stop-color="#0052C4"/>
</linearGradient>
</defs>
</svg>
