<?xml version="1.0" encoding="UTF-8" standalone="no"?>
<svg
   xmlns:dc="http://purl.org/dc/elements/1.1/"
   xmlns:cc="http://creativecommons.org/ns#"
   xmlns:rdf="http://www.w3.org/1999/02/22-rdf-syntax-ns#"
   xmlns:svg="http://www.w3.org/2000/svg"
   xmlns="http://www.w3.org/2000/svg"
   xmlns:sodipodi="http://sodipodi.sourceforge.net/DTD/sodipodi-0.dtd"
   xmlns:inkscape="http://www.inkscape.org/namespaces/inkscape"
   width="335"
   height="167"
   viewBox="0 0 335 167"
   fill="none"
   version="1.1"
   id="svg32"
   sodipodi:docname="nano-mark.svg"
   inkscape:version="1.0.1 (0767f8302a, 2020-10-17)">
  <metadata
     id="metadata36">
    <rdf:RDF>
      <cc:Work
         rdf:about="">
        <dc:format>image/svg+xml</dc:format>
        <dc:type
           rdf:resource="http://purl.org/dc/dcmitype/StillImage" />
      </cc:Work>
    </rdf:RDF>
  </metadata>
  <sodipodi:namedview
     pagecolor="#ffffff"
     bordercolor="#666666"
     borderopacity="1"
     objecttolerance="10"
     gridtolerance="10"
     guidetolerance="10"
     inkscape:pageopacity="0"
     inkscape:pageshadow="2"
     inkscape:window-width="1872"
     inkscape:window-height="1002"
     id="namedview34"
     showgrid="false"
     inkscape:zoom="1.2822906"
     inkscape:cx="437.0395"
     inkscape:cy="136.23624"
     inkscape:window-x="24"
     inkscape:window-y="54"
     inkscape:window-maximized="0"
     inkscape:current-layer="svg32"
     inkscape:document-rotation="0" />
  <g
     filter="url(#filter0_d)"
     id="g4"
     transform="matrix(1.0397301,0,0,1.0397301,-9.5219609,-3.7497536)">
    <rect
       x="2"
       width="331"
       height="163"
       rx="17"
       fill="url(#paint0_linear)"
       id="rect2"
       style="fill:url(#paint0_linear)"
       y="0" />
  </g>
  <path
     opacity="0.25"
     fill-rule="evenodd"
     clip-rule="evenodd"
     d="m 208.01074,90.488499 c 0,-41.958017 34.01399,-75.971627 75.97163,-75.971627 13.13003,0 25.48291,3.330944 36.25831,9.194018 v 7.995699 c -10.53829,-6.512171 -22.95892,-10.2703 -36.25638,-10.2703 -38.14357,0 -69.06546,30.921518 -69.06546,69.065081 0,32.72461 22.75954,60.13246 53.31272,67.26025 l -19.60358,-0.0116 C 224.47674,145.02935 208.01074,119.68193 208.01074,90.488499 Z M 283.9843,22.280398 c -37.67708,0 -68.22059,30.543594 -68.22059,68.220972 0,33.74369 24.49771,61.76512 56.67774,67.24863 h 31.38064 c 9.0866,0 16.45246,-7.36586 16.45246,-16.45246 V 32.722964 C 309.76337,26.107335 297.32144,22.280398 283.9843,22.280398 Z m 2.66626,123.392542 -0.10839,-46.480126 h 0.0368 V 98.79602 h 0.32615 l 14.26718,-0.139362 c 0.29034,-0.0029 0.52357,-0.239044 0.5226,-0.529381 l -0.0319,-8.409721 c -9.7e-4,-0.290628 -0.23711,-0.525608 -0.52745,-0.525608 h -14.19459 l 0.0726,-4.296413 13.97878,-0.104422 c 0.28937,-0.0022 0.52357,-0.237786 0.52357,-0.527543 v -8.764125 c 0,-0.293434 -0.23904,-0.530447 -0.53325,-0.527543 L 286.76,75.111071 c -0.14517,-9.351092 -0.18098,-17.871915 0.50808,-22.348918 1.18168,-7.951471 12.0974,-5.900141 14.68044,-5.298948 0.29904,0.06949 0.59713,-0.120006 0.65809,-0.420602 l 2.00043,-9.959736 c 0.0552,-0.277078 -0.12388,-0.55077 -0.39969,-0.615709 -18.91936,-4.467325 -28.43759,3.690964 -29.04827,15.681222 -0.61648,11.84238 -0.61648,23.107182 -0.61648,23.107182 l -10.75119,0.06881 c -0.29035,0.0018 -0.52455,0.237495 -0.52455,0.527543 v 8.589923 c 0,0.290725 0.23517,0.526576 0.52648,0.527543 l 10.82184,0.03445 -0.10936,4.115921 h -0.68809 l -10.01955,-0.06852 c -0.29227,-0.002 -0.53132,0.234786 -0.53132,0.527543 v 8.694639 c 0,0.289369 0.23323,0.524542 0.52261,0.527446 l 9.99148,0.103558 h 0.68906 v 0.360985 l 0.25066,46.411407 c 0.002,0.29035 0.23711,0.52455 0.52745,0.52455 h 10.87411 c 0.29226,0 0.5284,-0.23711 0.5284,-0.52841 z"
     fill="#ffffff"
     id="path6"
     style="stroke-width:0.967791" />
  <path
     d="m 13.960623,4.852274 h 3.004121 v 2.2107646 h -3.004121 z m -3.738385,0.652572 c 1.057989,-0.3708287 2.164369,-0.5861621 3.284491,-0.6392553 l 0.09349,2.1974479 c -0.910112,0.037995 -1.809675,0.2084816 -2.670331,0.5060679 z M 5.6026985,8.6212215 C 6.3512174,7.7712878 7.2245234,7.0393761 8.1928762,6.450417 L 9.2876418,8.3415492 C 8.5089568,8.8146444 7.8066306,9.4028873 7.2048579,10.086226 Z M 3.0926346,13.602115 c 0.2382509,-1.102508 0.6434362,-2.162337 1.2016195,-3.142999 l 1.9226048,1.0787 c -0.436532,0.796879 -0.7515287,1.654149 -0.9345961,2.543743 z m -0.2536774,5.180588 v -2.836694 c 0,0 0,-0.106553 0,-0.159782 h 2.2029739 v 2.969862 z m 0,5.007546 v -2.983217 h 2.2029739 v 2.996476 z m 0,5.007449 v -2.983119 h 2.2029739 v 2.996476 z m 0,5.007547 v -2.983217 h 2.2029739 v 2.996475 z m 0,4.994191 v -2.983217 h 2.2029739 v 2.996476 z m 0,5.00745 v -2.98312 h 2.2029739 v 2.996475 z m 0,5.007546 v -2.983218 h 2.2029739 v 2.996573 z m 0,5.007546 v -2.983217 h 2.2029739 v 3.06306 z m 0,5.00745 v -2.983217 h 2.2029739 v 2.996573 z m 0,5.007546 v -2.983216 h 2.2029739 v 2.996476 z m 0,4.994191 v -2.943247 h 2.2029739 v 2.996476 z m 0,5.00745 v -2.983217 h 2.2029739 v 3.023186 z m 0,5.007547 v -2.983217 h 2.2029739 v 2.996475 z m 0,5.007449 V 80.87049 h 2.2029739 v 2.996476 z m 0,5.007546 v -2.996572 h 2.2029739 v 2.996572 z m 0,5.00745 v -2.98312 h 2.2029739 v 2.969862 z m 0,4.994191 v -2.983121 h 2.2029739 v 2.99667 z m 0,5.007352 v -2.99628 h 2.2029739 v 2.99628 z m 0,5.00735 v -3.03595 h 2.2029739 v 2.99628 z m 0,5.00832 v -2.98369 h 2.2029739 v 2.99628 z m 0,5.00736 v -2.99725 h 2.2029739 v 2.99725 z m 0,5.00735 v -2.99628 h 2.2029739 v 2.99628 z m 0,4.9938 v -2.99628 h 2.2029739 v 2.99628 z m 0,5.00735 v -2.99628 h 2.2029739 v 2.99628 z m 0,5.00833 v -2.99725 h 2.2029739 v 2.99725 z m 0,5.08671 c 0,-0.39969 0,-0.81198 0,-1.21168 v -1.86493 h 2.2029739 v 1.86493 c 0,0.31937 0,0.6523 0,0.97263 z m 1.9893533,5.19413 C 4.1764159,148.2792 3.6676769,147.27269 3.3196107,146.20812 l 2.0961589,-0.67938 c 0.2809401,0.85359 0.6857866,1.66073 1.2016292,2.39721 z m 4.2724508,3.59632 C 8.0834189,152.3023 7.1467516,151.66453 6.3236644,150.89514 l 1.4953538,-1.59783 c 0.6632276,0.61067 1.4149112,1.1178 2.2296948,1.50492 z m 5.3405627,1.09167 h -0.480701 c -0.899756,0.003 -1.796608,-0.10451 -2.670234,-0.31938 l 0.520672,-2.14462 c 0.694584,0.1713 1.407556,0.25646 2.122947,0.25357 h 0.560739 z m 5.020128,0 h -2.923988 v -2.21043 h 3.004122 z m 5.020128,0 h -2.923988 v -2.21043 h 3.004121 z m 5.020128,0 h -2.857211 v -2.21043 h 2.937248 z m 5.006772,0 h -2.923988 v -2.21043 h 3.070802 z m 5.020128,0 h -2.923989 v -2.21043 h 3.004026 z m 5.020127,0 h -2.923988 v -2.21043 h 3.004025 z m 5.020128,0 h -2.897278 v -2.21043 h 3.004026 z m 5.020127,0 h -2.923987 v -2.21043 h 3.01738 z m 5.020032,0 H 56.68513 v -2.21043 h 3.004025 z m 5.006772,0 h -2.923891 v -2.21043 h 3.004024 z m 5.020128,0 h -2.937247 v -2.21043 h 3.004024 z m 5.020127,0 h -2.923891 v -2.21043 h 2.977314 z m 5.020128,0 h -2.923892 v -2.21043 h 3.004025 z m 5.020127,0 h -2.92389 v -2.21043 h 3.004024 z m 5.020129,0 h -2.923892 v -2.21043 h 3.004024 z m 5.006771,0 h -2.92389 v -2.21043 h 3.004024 z m 5.019741,0 h -3.004024 v -2.21043 h 3.004024 z m 5.020905,0 h -3.00403 v -2.21043 h 3.00403 z m 5.01993,0 h -3.00402 v -2.21043 h 3.00402 z m 5.01993,0 h -3.00402 v -2.21043 h 3.00402 z m 5.01994,0 h -2.9237 v -2.21043 h 3.00403 z m 5.00735,0 h -3.00402 v -2.21043 h 3.00402 z m 5.01994,0 h -3.00403 v -2.21043 h 3.00403 z m 5.01993,0 h -3.00403 v -2.21043 h 3.00403 z m 5.01994,0 h -3.00403 v -2.21043 h 3.00403 z m 5.01992,0 h -3.00402 v -2.21043 h 3.00402 z m 5.02091,0 h -3.00402 v -2.21043 h 3.00402 z m 5.00638,0 h -2.92369 v -2.21043 h 3.00402 z m 5.01994,0 h -3.00402 v -2.21043 h 3.00402 z m 5.01993,0 h -3.00402 v -2.21043 h 3.00402 z m 5.02091,0 h -3.005 v -2.21043 h 3.005 z m 5.01993,0 h -3.00403 v -2.21043 h 3.00403 z m 5.01994,0 h -2.9237 v -2.21043 h 3.07079 z m 5.00638,0 h -3.00403 v -2.21043 h 3.00403 z m 5.0209,0 h -3.00499 v -2.21043 h 3.00499 z m 5.01993,0 h -2.88401 v -2.21043 h 3.00403 z m 5.01994,0 h -3.00402 v -2.21043 h 3.11048 z m 5.01993,0 h -3.00402 v -2.21043 h 3.00402 z m 5.01994,0 h -3.00403 v -2.21043 h 3.00403 z m 5.01994,0 h -2.93726 v -2.21043 h 3.00403 z m 5.00735,0 h -3.00403 v -2.21043 h 3.07081 z m 5.01993,0 h -3.00403 v -2.21043 h 3.00403 z m 5.01993,0 h -3.00402 v -2.21043 h 3.00402 z m 5.01993,0 h -2.97692 v -2.21043 h 3.00403 z m 5.02091,0 h -2.92466 v -2.21043 h 3.00402 z m 5.01993,0 h -3.00402 v -2.21043 h 3.00402 z m 5.00639,0 h -3.00402 v -2.21043 H 250.28 Z m 5.01993,0 h -3.00403 v -2.21043 h 3.00403 z m 5.02091,0 h -3.00403 v -2.21043 h 3.00403 z m 5.01993,0 h -3.00403 v -2.21043 h 3.00403 z m 5.01993,0 h -3.00402 v -2.21043 h 3.00402 z m 5.01993,0 h -3.00402 v -2.21043 h 3.00402 z m 5.00736,0 h -3.00402 v -2.21043 h 3.00402 z m 5.01993,0 h -3.00402 v -2.21043 h 3.00402 z m 5.01994,0 h -3.00402 v -2.21043 h 3.00402 z m 5.01993,0 h -3.00403 v -2.21043 h 3.00403 z m 5.01994,0 h -2.9237 v -2.21043 h 3.00403 z m 5.02089,0 h -3.00402 v -2.21043 h 3.00402 z m 5.34028,-0.98521 c -1.03263,0.46647 -2.13204,0.77133 -3.25758,0.90488 l -0.26711,-2.18334 c 0.9223,-0.0997 1.82331,-0.34163 2.67013,-0.72003 z m 4.35216,-3.48986 c -0.67358,0.91359 -1.48943,1.71396 -2.41658,2.37109 l -1.33458,-1.78461 c 0.73262,-0.52938 1.38104,-1.16716 1.92203,-1.89106 z m 2.09623,-5.15349 c -0.14806,1.12071 -0.46744,2.21237 -0.94746,3.23629 l -1.98978,-0.93295 c 0.39292,-0.84198 0.64938,-1.74106 0.76165,-2.66336 z m 0.0939,-5.10123 v 2.99629 h -2.20269 v -3.00984 z m 0,-5.00735 v 2.99628 h -2.20269 v -2.99628 z m 0,-5.00735 v 2.99628 h -2.20269 v -2.98273 z m 0,-5.00735 v 3.02338 h -2.20269 v -2.99726 z m 0,-5.00736 v 2.99628 h -2.20269 v -2.9566 z m 0,-5.00832 v 2.99725 h -2.20269 v -2.99725 z m 0,-4.9938 v 2.99628 h -2.20269 v -2.99628 z m 0,-5.00736 v 3.06306 h -2.20269 v -2.99628 z m 0,-5.007349 v 2.996279 h -2.20269 v -2.916921 z m 0,-5.007741 v 2.99667 h -2.20269 v -2.983411 z m 0,-5.007547 v 2.996573 h -2.20269 v -2.983217 z m 0,-5.007448 v 2.996475 h -2.20269 v -2.983217 z m 0,-4.994192 v 2.996476 h -2.20269 v -2.983217 z m 0,-5.007546 v 2.996572 h -2.20269 v -2.983217 z m 0,-5.007449 v 2.996476 h -2.20269 v -2.983218 z m 0,-5.007547 v 2.996476 h -2.20269 v -2.983121 z m 0,-5.00745 v 2.996476 H 315.1685 V 59.06915 Z m 0,-5.007547 V 57.04482 H 315.1685 V 54.0617 Z m 0,-5.007545 v 2.996571 h -2.20269 v -2.983216 z m 0,-4.994192 v 2.996573 h -2.20269 v -2.983217 z m 0,-5.007449 v 3.009831 h -2.20269 v -2.996573 z m 0,-5.007546 v 2.996572 h -2.20269 v -2.983217 z m 0,-5.00745 v 2.996476 h -2.20269 v -2.983217 z m 0,-5.007547 v 2.996573 h -2.20269 v -2.983217 z m 0,-5.00745 v 2.996476 h -2.20269 v -2.983217 z m -0.18678,-5.154069 c 0.12774,0.685099 0.19066,1.380747 0.18678,2.077654 v 1.078701 h -2.20269 v -1.065442 c 0.004,-0.558319 -0.0446,-1.115767 -0.14711,-1.664698 z m -2.40399,-5.034103 c 0.7239,0.8491789 1.30941,1.806421 1.73621,2.836732 l -2.02946,0.852334 c -0.32517,-0.82301 -0.7752,-1.591146 -1.33555,-2.277407 z M 310.255,5.5847566 c 1.08103,0.4072563 2.08946,0.9825987 2.99048,1.7046775 l -1.33555,1.7180039 c -0.70069,-0.5606803 -1.4846,-1.0099096 -2.32271,-1.3317777 z m -5.34124,-0.7457994 h 1.33556 c 0.59519,0.00189 1.18844,0.050877 1.77589,0.1464946 L 307.67778,7.156266 C 307.20549,7.081107 306.7274,7.0454635 306.24932,7.0497121 h -1.33556 z m -5.01993,0 h 3.12403 v 2.2107549 h -3.00403 z m -5.01994,0 h 3.00402 v 2.2107549 h -2.87046 z m -5.01993,0 h 3.00403 v 2.2107549 h -3.00403 z m -5.01994,0 h 3.00403 v 2.2107549 h -3.00403 z m -5.0209,0 h 3.00403 v 2.2107549 h -3.00403 z m -5.00639,0 h 3.00403 v 2.2107549 h -3.00403 z m -5.01992,0 h 3.00402 v 2.2107549 h -3.00402 z m -5.01994,0 h 3.00402 v 2.2107549 h -3.00402 z m -5.0209,0 h 3.00402 v 2.2107549 h -3.00402 z m -5.01994,0 h 3.00402 v 2.2107549 h -2.91014 z m -5.01993,0 h 3.00403 v 2.2107549 h -3.00403 z m -5.00639,0 h 3.00402 v 2.2107549 h -3.00402 z m -5.0209,0 h 3.00403 v 2.2107549 h -3.00403 z m -5.01994,0 h 3.00403 v 2.2107549 h -3.00403 z m -5.01992,0 h 3.00402 v 2.2107549 h -3.00402 z m -5.01994,0 h 3.00402 v 2.2107549 h -3.00402 z m -5.01993,0 h 3.00402 v 2.2107549 h -3.00402 z m -5.00736,0 h 3.00402 v 2.2107549 h -3.00402 z m -5.01993,0 h 3.00402 v 2.2107549 h -3.00402 z m -5.01994,0 h 3.00403 v 2.2107549 h -3.00403 z m -5.01993,0 h 3.00403 v 2.2107549 h -3.00403 z m -5.02091,0 h 3.005 v 2.2107549 h -2.91112 z m -5.01992,0 h 3.00402 v 2.2107549 h -2.96338 z m -5.01994,0 h 3.00402 v 2.2107549 h -3.00402 z m -5.00638,0 h 3.00402 v 2.2107549 h -3.00402 z m -5.01994,0 h 3.0708 v 2.2107549 h -3.00499 z m -5.0209,0 h 3.00402 v 2.2107549 h -2.92369 z m -5.01994,0 h 3.00403 v 2.2107549 h -3.00403 z m -5.01993,0 h 3.00403 v 2.2107549 h -3.00403 z m -5.01994,0 h 3.12403 v 2.2107549 h -3.00402 z m -5.00735,0 h 3.00403 v 2.2107549 h -2.88305 z m -5.01993,0 h 3.00402 v 2.2107549 h -3.00402 z m -5.01993,0 h 3.00402 v 2.2107549 h -3.00402 z m -5.01994,0 h 3.16371 v 2.2107549 h -3.0708 z m -5.01993,0 h 3.00402 v 2.2107549 h -3.00402 z m -5.02091,0 h 3.00403 v 2.2107549 h -3.00403 z m -5.00638,0 h 3.00403 v 2.2107549 h -3.00403 z m -5.01994,0 h 3.00403 v 2.2107549 h -3.00403 z m -5.01993,0 h 3.00403 v 2.2107549 h -3.00403 z m -5.0209,0 h 3.00402 v 2.2107549 h -3.00402 z m -5.019935,0 h 3.004025 v 2.2107549 h -3.004025 z m -5.019934,0 h 3.004025 v 2.2107549 h -2.910537 z m -5.006773,0 h 3.004025 v 2.2107549 h -2.910536 z m -5.020127,0 h 3.004025 v 2.2107549 h -2.910537 z m -5.020128,0 h 3.004121 v 2.2107549 h -2.910632 z m -5.020127,0 h 3.004121 v 2.2107549 h -2.910633 z m -5.020128,0 h 3.004121 v 2.2107549 h -2.910632 z m -5.020128,0 h 3.004122 v 2.2107549 h -2.910634 z m -5.006772,0 h 3.004121 v 2.2107549 h -2.910632 z m -5.020128,0 h 3.004122 v 2.2107549 h -2.910634 z m -5.020128,0 h 3.004121 v 2.2107549 h -2.910632 z m -5.020127,0 h 3.09761 v 2.2107549 h -3.004121 z m -5.020031,0 h 3.004024 v 2.2107549 h -2.910632 z m -5.020128,0 h 3.004025 v 2.2107549 h -2.910634 z m -5.006772,0 h 3.057447 v 2.2107549 h -2.964055 z m -5.020128,0 h 3.004025 v 2.2107549 h -2.937344 z m -5.020128,0 h 3.004026 V 7.0497121 H 18.98075 Z"
     fill="#ffffff"
     id="path8"
     style="stroke-width:0.967791" />
  <defs
     id="defs30">
    <filter
       id="filter0_d"
       x="0"
       y="0"
       width="335"
       height="167"
       filterUnits="userSpaceOnUse"
       color-interpolation-filters="sRGB">
      <feFlood
         flood-opacity="0"
         result="BackgroundImageFix"
         id="feFlood10" />
      <feColorMatrix
         in="SourceAlpha"
         type="matrix"
         values="0 0 0 0 0 0 0 0 0 0 0 0 0 0 0 0 0 0 127 0"
         id="feColorMatrix12" />
      <feOffset
         dy="2"
         id="feOffset14" />
      <feGaussianBlur
         stdDeviation="1"
         id="feGaussianBlur16" />
      <feColorMatrix
         type="matrix"
         values="0 0 0 0 0 0 0 0 0 0 0 0 0 0 0 0 0 0 0.3 0"
         id="feColorMatrix18" />
      <feBlend
         mode="normal"
         in2="BackgroundImageFix"
         result="effect1_dropShadow"
         id="feBlend20" />
      <feBlend
         mode="normal"
         in="SourceGraphic"
         in2="effect1_dropShadow"
         result="shape"
         id="feBlend22" />
    </filter>
    <linearGradient
       id="paint0_linear"
       x1="167"
       y1="81"
       x2="167"
       y2="191"
       gradientUnits="userSpaceOnUse">
      <stop
         stop-color="#FF4C4C"
         id="stop25" />
      <stop
         offset="1"
         stop-color="#FFB6A6"
         id="stop27" />
    </linearGradient>
  </defs>
</svg>
