<svg width="1771" height="781" viewBox="0 0 1771 781" fill="none" xmlns="http://www.w3.org/2000/svg">
<path d="M902.929 378.557H827.913V457.502H804.34V278.74H915.084V298.139H827.913V359.281H902.929V378.557ZM967.018 438.226H1051.73V457.502H943.322V278.74H967.018V438.226ZM1179.79 410.847H1104.9L1088.08 457.502H1063.77L1132.03 278.74H1152.66L1221.04 457.502H1196.85L1179.79 410.847ZM1112.02 391.449H1172.79L1142.34 307.838L1112.02 391.449ZM1270.4 457.502H1246.82V278.74H1270.4V457.502ZM1379.18 385.187H1337.19V457.502H1313.49V278.74H1372.67C1392.8 278.74 1408.27 283.324 1419.08 292.491C1429.96 301.658 1435.41 315 1435.41 332.516C1435.41 343.648 1432.38 353.347 1426.32 361.614C1420.35 369.881 1412 376.061 1401.28 380.153L1443.27 456.029V457.502H1417.97L1379.18 385.187ZM1337.19 365.911H1373.41C1385.11 365.911 1394.4 362.883 1401.28 356.826C1408.23 350.769 1411.71 342.666 1411.71 332.516C1411.71 321.466 1408.4 312.995 1401.77 307.101C1395.22 301.208 1385.72 298.221 1373.28 298.139H1337.19V365.911ZM1534.12 385.187H1492.13V457.502H1468.43V278.74H1527.61C1547.75 278.74 1563.22 283.324 1574.02 292.491C1584.91 301.658 1590.35 315 1590.35 332.516C1590.35 343.648 1587.32 353.347 1581.27 361.614C1575.29 369.881 1566.94 376.061 1556.22 380.153L1598.21 456.029V457.502H1572.92L1534.12 385.187ZM1492.13 365.911H1528.35C1540.05 365.911 1549.34 362.883 1556.22 356.826C1563.18 350.769 1566.66 342.666 1566.66 332.516C1566.66 321.466 1563.34 312.995 1556.71 307.101C1550.16 301.208 1540.67 298.221 1528.23 298.139H1492.13V365.911Z" fill="white"/>
<circle cx="384.46" cy="395.46" r="302.46" fill="white"/>
<path fill-rule="evenodd" clip-rule="evenodd" d="M384.46 697.92C551.504 697.92 686.92 562.504 686.92 395.46C686.92 228.416 551.504 93 384.46 93C217.416 93 82 228.416 82 395.46C82 562.504 217.416 697.92 384.46 697.92ZM394.655 430.154L395.088 617.055C395.088 617.193 394.976 617.306 394.838 617.306H347.85C347.712 617.306 347.6 617.195 347.6 617.057L346.591 430.442V429.004H343.848L302.238 428.576C302.101 428.574 301.99 428.463 301.99 428.326V390.015C301.99 389.876 302.103 389.764 302.242 389.765L343.993 390.05H346.735L347.168 373.664L302.239 373.521C302.102 373.521 301.99 373.409 301.99 373.271V335.39C301.99 335.252 302.101 335.14 302.239 335.14L346.879 334.854C346.879 334.854 346.879 290.006 349.333 242.859C351.784 194.755 390.246 162.144 466.731 180.849C466.861 180.88 466.948 181.01 466.921 181.141L458.217 224.484C458.188 224.626 458.07 224.722 457.929 224.685C454.027 223.651 402.679 210.735 397.542 245.303C394.799 263.127 394.944 297.05 395.521 334.279L454.014 333.706C454.153 333.705 454.267 333.817 454.267 333.956V372.553C454.267 372.691 454.156 372.802 454.019 372.803L396.532 373.233L396.243 390.338H454.595C454.733 390.338 454.844 390.449 454.845 390.587L454.987 427.75C454.988 427.887 454.877 427.999 454.74 428.001L396.099 428.573H394.799V430.154H394.655ZM659.021 395.458C659.021 547.095 536.095 670.022 384.458 670.022C232.82 670.022 109.894 547.095 109.894 395.458C109.894 243.821 232.82 120.895 384.458 120.895C536.095 120.895 659.021 243.821 659.021 395.458ZM659.421 395.458C659.421 547.316 536.316 670.422 384.458 670.422C232.6 670.422 109.494 547.316 109.494 395.458C109.494 243.6 232.6 120.495 384.458 120.495C536.316 120.495 659.421 243.6 659.421 395.458Z" fill="url(#paint0_linear)"/>
<defs>
<linearGradient id="paint0_linear" x1="384.46" y1="93" x2="384.46" y2="697.92" gradientUnits="userSpaceOnUse">
<stop stop-color="#F46868"/>
<stop offset="1" stop-color="#D94646"/>
</linearGradient>
</defs>
</svg>
