<svg width="335" height="167" viewBox="0 0 335 167" fill="none" xmlns="http://www.w3.org/2000/svg">
<g clip-path="url(#clip0)">
<g filter="url(#filter0_d)">
<rect width="335" height="163.506" rx="17" fill="url(#paint0_linear)"/>
</g>
<path d="M14.6668 5.02894H17.8084V7.32037H14.6668V5.02894ZM10.7574 5.70532C11.8637 5.32097 13.0208 5.09777 14.1921 5.04274L14.2899 7.32037C13.3381 7.35975 12.3974 7.53646 11.4974 7.84491L10.7574 5.70532ZM5.92636 8.9354C6.70914 8.05446 7.62241 7.29585 8.63507 6.68539L9.77999 8.64553C8.96559 9.13588 8.23118 9.74559 7.60185 10.4538L5.92636 8.9354ZM3.30142 14.098C3.55058 12.9553 3.9743 11.8569 4.55804 10.8403L6.56863 11.9584C6.11212 12.7844 5.7827 13.673 5.59126 14.5949L3.30142 14.098ZM3.03613 19.4677V16.5275C3.03613 16.5275 3.03613 16.417 3.03613 16.3618H5.33993V19.4401L3.03613 19.4677ZM3.03613 24.6579V21.5658H5.33993V24.6717L3.03613 24.6579ZM3.03613 29.8481V26.7561H5.33993V29.8619L3.03613 29.8481ZM3.03613 35.0383V31.9463H5.33993V35.0521L3.03613 35.0383ZM3.03613 40.2147V37.1227H5.33993V40.2285L3.03613 40.2147ZM3.03613 45.4049V42.3129H5.33993V45.4187L3.03613 45.4049ZM3.03613 50.5951V47.5031H5.33993V50.609L3.03613 50.5951ZM3.03613 55.7854V52.6933H5.33993V55.8682L3.03613 55.7854ZM3.03613 60.9756V57.8835H5.33993V60.9894L3.03613 60.9756ZM3.03613 66.1658V63.0737H5.33993V66.1796L3.03613 66.1658ZM3.03613 71.3422V68.2916H5.33993V71.3974L3.03613 71.3422ZM3.03613 76.5324V73.4404H5.33993V76.5738L3.03613 76.5324ZM3.03613 81.7226V78.6306H5.33993V81.7364L3.03613 81.7226ZM3.03613 86.9128V83.8208H5.33993V86.9266L3.03613 86.9128ZM3.03613 92.103V88.9972H5.33993V92.103H3.03613ZM3.03613 97.2933V94.2012H5.33993V97.2794L3.03613 97.2933ZM3.03613 102.47V99.3776H5.33993V102.483L3.03613 102.47ZM3.03613 107.66V104.554H5.33993V107.66H3.03613ZM3.03613 112.85V109.703H5.33993V112.809L3.03613 112.85ZM3.03613 118.04V114.948H5.33993V118.054L3.03613 118.04ZM3.03613 123.231V120.125H5.33993V123.231H3.03613ZM3.03613 128.421V125.315H5.33993V128.421H3.03613ZM3.03613 133.597V130.491H5.33993V133.597H3.03613ZM3.03613 138.787V135.682H5.33993V138.787H3.03613ZM3.03613 143.978V140.872H5.33993V143.978H3.03613ZM3.03613 149.251C3.03613 148.836 3.03613 148.409 3.03613 147.994V146.062H5.33993V147.994C5.33993 148.326 5.33993 148.671 5.33993 149.002L3.03613 149.251ZM5.11654 154.634C4.43481 153.689 3.90278 152.646 3.53878 151.542L5.73088 150.838C6.02468 151.723 6.44805 152.56 6.9875 153.323L5.11654 154.634ZM9.58452 158.361C8.52058 157.859 7.54108 157.198 6.68033 156.401L8.24412 154.744C8.93772 155.377 9.72378 155.903 10.5758 156.304L9.58452 158.361ZM15.1695 159.493H14.6668C13.7258 159.496 12.788 159.384 11.8744 159.162L12.4189 156.939C13.1452 157.116 13.8908 157.205 14.6389 157.202H15.2253L15.1695 159.493ZM20.4194 159.493H17.3616V157.202H20.5031L20.4194 159.493ZM25.6692 159.493H22.6115V157.202H25.753L25.6692 159.493ZM30.9191 159.493H27.9312V157.202H31.0029L30.9191 159.493ZM36.155 159.493H33.0973V157.202H36.3086L36.155 159.493ZM41.4049 159.493H38.3471V157.202H41.4887L41.4049 159.493ZM46.6548 159.493H43.597V157.202H46.7386L46.6548 159.493ZM51.9047 159.493H48.8748V157.202H52.0164L51.9047 159.493ZM57.1545 159.493H54.0968V157.202H57.2523L57.1545 159.493ZM62.4044 159.493H59.3466V157.202H62.4882L62.4044 159.493ZM67.6403 159.493H64.5826V157.202H67.7241L67.6403 159.493ZM72.8902 159.493H69.8185V157.202H72.96L72.8902 159.493ZM78.1401 159.493H75.0823V157.202H78.1959L78.1401 159.493ZM83.39 159.493H80.3322V157.202H83.4737L83.39 159.493ZM88.6398 159.493H85.5821V157.202H88.7236L88.6398 159.493ZM93.8897 159.493H90.8319V157.202H93.9735L93.8897 159.493ZM99.1256 159.493H96.0678V157.202H99.2094L99.1256 159.493ZM104.375 159.493H101.234V157.202H104.375V159.493ZM109.625 159.493H106.484V157.202H109.625V159.493ZM114.875 159.493H111.734V157.202H114.875V159.493ZM120.125 159.493H116.984V157.202H120.125V159.493ZM125.375 159.493H122.317V157.202H125.459L125.375 159.493ZM130.611 159.493H127.469V157.202H130.611V159.493ZM135.861 159.493H132.719V157.202H135.861V159.493ZM141.111 159.493H137.969V157.202H141.111V159.493ZM146.361 159.493H143.219V157.202H146.361V159.493ZM151.61 159.493H148.469V157.202H151.61V159.493ZM156.86 159.493H153.719V157.202H156.86V159.493ZM162.096 159.493H159.038V157.202H162.18L162.096 159.493ZM167.346 159.493H164.205V157.202H167.346V159.493ZM172.596 159.493H169.454V157.202H172.596V159.493ZM177.846 159.493H174.704V157.202H177.846V159.493ZM183.096 159.493H179.954V157.202H183.096V159.493ZM188.346 159.493H185.288V157.202H188.499L188.346 159.493ZM193.581 159.493H190.44V157.202H193.581V159.493ZM198.831 159.493H195.69V157.202H198.831V159.493ZM204.081 159.493H201.065V157.202H204.207L204.081 159.493ZM209.331 159.493H206.19V157.202H209.443L209.331 159.493ZM214.581 159.493H211.439V157.202H214.581V159.493ZM219.831 159.493H216.689V157.202H219.831V159.493ZM225.081 159.493H222.009V157.202H225.151L225.081 159.493ZM230.317 159.493H227.175V157.202H230.386L230.317 159.493ZM235.567 159.493H232.425V157.202H235.567V159.493ZM240.816 159.493H237.675V157.202H240.816V159.493ZM246.066 159.493H242.953V157.202H246.094L246.066 159.493ZM251.316 159.493H248.258V157.202H251.4L251.316 159.493ZM256.566 159.493H253.424V157.202H256.566V159.493ZM261.802 159.493H258.66V157.202H261.802V159.493ZM267.052 159.493H263.91V157.202H267.052V159.493ZM272.302 159.493H269.16V157.202H272.302V159.493ZM277.552 159.493H274.41V157.202H277.552V159.493ZM282.801 159.493H279.66V157.202H282.801V159.493ZM288.051 159.493H284.91V157.202H288.051V159.493ZM293.287 159.493H290.146V157.202H293.287V159.493ZM298.537 159.493H295.396V157.202H298.537V159.493ZM303.787 159.493H300.645V157.202H303.787V159.493ZM309.037 159.493H305.895V157.202H309.037V159.493ZM314.287 159.493H311.229V157.202H314.371L314.287 159.493ZM319.537 159.493H316.395V157.202H319.537V159.493ZM325.122 158.472C324.041 158.955 322.892 159.272 321.715 159.41L321.436 157.146C322.4 157.044 323.342 156.792 324.228 156.401L325.122 158.472ZM329.673 154.855C328.969 155.802 328.115 156.631 327.146 157.312L325.75 155.462C326.517 154.913 327.195 154.252 327.76 153.502L329.673 154.855ZM331.865 149.513C331.711 150.675 331.377 151.806 330.874 152.867L328.794 151.901C329.204 151.028 329.473 150.096 329.59 149.14L331.865 149.513ZM331.963 144.226V147.332H329.659V144.212L331.963 144.226ZM331.963 139.036V142.142H329.659V139.036H331.963ZM331.963 133.846V136.951H329.659V133.859L331.963 133.846ZM331.963 128.655V131.789H329.659V128.683L331.963 128.655ZM331.963 123.465V126.571H329.659V123.507L331.963 123.465ZM331.963 118.275V121.381H329.659V118.275H331.963ZM331.963 113.099V116.204H329.659V113.099H331.963ZM331.963 107.908V111.083H329.659V107.977L331.963 107.908ZM331.963 102.718V105.824H329.659V102.801L331.963 102.718ZM331.963 97.5279V100.634H329.659V97.5417L331.963 97.5279ZM331.963 92.3377V95.4435H329.659V92.3515L331.963 92.3377ZM331.963 87.1475V90.2533H329.659V87.1613L331.963 87.1475ZM331.963 81.9711V85.0769H329.659V81.9849L331.963 81.9711ZM331.963 76.7809V79.8867H329.659V76.7947L331.963 76.7809ZM331.963 71.5907V74.6965H329.659V71.6045L331.963 71.5907ZM331.963 66.4004V69.5063H329.659V66.4142L331.963 66.4004ZM331.963 61.2102V64.3161H329.659V61.224L331.963 61.2102ZM331.963 56.02V59.1259H329.659V56.0338L331.963 56.02ZM331.963 50.8298V53.9357H329.659V50.8436L331.963 50.8298ZM331.963 45.6534V48.7592H329.659V45.6672L331.963 45.6534ZM331.963 40.4632V43.5828H329.659V40.477L331.963 40.4632ZM331.963 35.273V38.3788H329.659V35.2868L331.963 35.273ZM331.963 30.0828V33.1886H329.659V30.0966L331.963 30.0828ZM331.963 24.8925V27.9984H329.659V24.9064L331.963 24.8925ZM331.963 19.7023V22.8082H329.659V19.7161L331.963 19.7023ZM331.768 14.3603C331.902 15.0703 331.967 15.7914 331.963 16.5137V17.6318H329.659V16.5275C329.664 15.9488 329.613 15.3709 329.506 14.802L331.768 14.3603ZM329.254 9.14246C330.011 10.0226 330.624 11.0148 331.07 12.0827L328.947 12.9661C328.607 12.1131 328.136 11.317 327.551 10.6057L329.254 9.14246ZM324.521 5.78815C325.652 6.21026 326.707 6.8066 327.649 7.55503L326.253 9.33571C325.52 8.75457 324.7 8.28895 323.823 7.95534L324.521 5.78815ZM318.936 5.01514H320.333C320.955 5.0171 321.576 5.06787 322.189 5.16698L321.826 7.41699C321.332 7.3391 320.833 7.30216 320.333 7.30656H318.936V5.01514ZM313.686 5.01514H316.954V7.30656H313.812L313.686 5.01514ZM308.436 5.01514H311.578V7.30656H308.576L308.436 5.01514ZM303.187 5.01514H306.328V7.30656H303.187V5.01514ZM297.937 5.01514H301.078V7.30656H297.937V5.01514ZM292.687 5.01514H295.828V7.30656H292.687V5.01514ZM287.451 5.01514H290.592V7.30656H287.451V5.01514ZM282.201 5.01514H285.343V7.30656H282.201V5.01514ZM276.951 5.01514H280.093V7.30656H276.951V5.01514ZM271.701 5.01514H274.843V7.30656H271.701V5.01514ZM266.451 5.01514H269.593V7.30656H266.549L266.451 5.01514ZM261.202 5.01514H264.343V7.30656H261.202V5.01514ZM255.966 5.01514H259.107V7.30656H255.966V5.01514ZM250.716 5.01514H253.857V7.30656H250.716V5.01514ZM245.466 5.01514H248.607V7.30656H245.466V5.01514ZM240.216 5.01514H243.358V7.30656H240.216V5.01514ZM234.966 5.01514H238.108V7.30656H234.966V5.01514ZM229.716 5.01514H232.858V7.30656H229.716V5.01514ZM224.48 5.01514H227.622V7.30656H224.48V5.01514ZM219.23 5.01514H222.372V7.30656H219.23V5.01514ZM213.981 5.01514H217.122V7.30656H213.981V5.01514ZM208.731 5.01514H211.872V7.30656H208.731V5.01514ZM203.481 5.01514H206.622V7.30656H203.579L203.481 5.01514ZM198.231 5.01514H201.373V7.30656H198.273L198.231 5.01514ZM192.981 5.01514H196.123V7.30656H192.981V5.01514ZM187.745 5.01514H190.887V7.30656H187.745V5.01514ZM182.495 5.01514H185.707V7.30656H182.565L182.495 5.01514ZM177.245 5.01514H180.387V7.30656H177.329L177.245 5.01514ZM171.996 5.01514H175.137V7.30656H171.996V5.01514ZM166.746 5.01514H169.887V7.30656H166.746V5.01514ZM161.496 5.01514H164.763V7.30656H161.621L161.496 5.01514ZM156.26 5.01514H159.401V7.30656H156.386L156.26 5.01514ZM151.01 5.01514H154.152V7.30656H151.01V5.01514ZM145.76 5.01514H148.902V7.30656H145.76V5.01514ZM140.51 5.01514H143.819V7.30656H140.608L140.51 5.01514ZM135.26 5.01514H138.402V7.30656H135.26V5.01514ZM130.011 5.01514H133.152V7.30656H130.011V5.01514ZM124.775 5.01514H127.916V7.30656H124.775V5.01514ZM119.525 5.01514H122.666V7.30656H119.525V5.01514ZM114.275 5.01514H117.416V7.30656H114.275V5.01514ZM109.025 5.01514H112.167V7.30656H109.025V5.01514ZM103.775 5.01514H106.917V7.30656H103.775V5.01514ZM98.5252 5.01514H101.667V7.30656H98.623L98.5252 5.01514ZM93.2893 5.01514H96.4309V7.30656H93.3871L93.2893 5.01514ZM88.0394 5.01514H91.181V7.30656H88.1372L88.0394 5.01514ZM82.7896 5.01514H85.9311V7.30656H82.8873L82.7896 5.01514ZM77.5397 5.01514H80.6812V7.30656H77.6374L77.5397 5.01514ZM72.2898 5.01514H75.4314V7.30656H72.3875L72.2898 5.01514ZM67.0399 5.01514H70.1815V7.30656H67.1377L67.0399 5.01514ZM61.804 5.01514H64.9456V7.30656H61.9018L61.804 5.01514ZM56.5542 5.01514H59.6957V7.30656H56.6519L56.5542 5.01514ZM51.3043 5.01514H54.4458V7.30656H51.402L51.3043 5.01514ZM46.0544 5.01514H49.2937V7.30656H46.1521L46.0544 5.01514ZM40.8045 5.01514H43.9461V7.30656H40.9023L40.8045 5.01514ZM35.5546 5.01514H38.6962V7.30656H35.6524L35.5546 5.01514ZM30.3187 5.01514H33.5161V7.30656H30.4165L30.3187 5.01514ZM25.0689 5.01514H28.2104V7.30656H25.1387L25.0689 5.01514ZM19.819 5.01514H22.9605V7.30656H19.9167L19.819 5.01514Z" fill="white"/>
<path opacity="0.25" fill-rule="evenodd" clip-rule="evenodd" d="M218.961 94.1146C218.961 51.0006 254.118 16.0498 297.487 16.0498C311.059 16.0498 323.827 19.4726 334.965 25.4971V33.7132C324.072 27.0216 311.234 23.1599 297.489 23.1599C258.063 23.1599 226.102 54.9333 226.102 94.1278C226.102 127.754 249.626 155.917 281.207 163.242L260.944 163.229C235.981 150.158 218.961 124.112 218.961 94.1146ZM297.489 24.0272C258.545 24.0272 226.974 55.4123 226.974 94.1278C226.974 128.801 252.296 157.594 285.559 163.229H318C327.389 163.229 335 155.618 335 146.229V34.7575C324.136 27.9596 311.275 24.0272 297.489 24.0272ZM300.245 150.819L300.134 103.059H300.171V102.651H300.508L315.256 102.508C315.556 102.505 315.797 102.262 315.796 101.964L315.762 93.3224C315.761 93.0238 315.517 92.7823 315.217 92.7823H300.546L300.621 88.3675L315.069 88.2602C315.369 88.258 315.61 88.0159 315.61 87.7181V78.7125C315.61 78.4111 315.363 78.1675 315.06 78.1705L300.359 78.3135C300.209 68.7047 300.171 59.9492 300.883 55.3489C302.105 47.1783 313.388 49.2861 316.058 49.9038C316.367 49.9752 316.675 49.7806 316.738 49.4717L318.805 39.2375C318.863 38.9528 318.677 38.6716 318.393 38.6048C298.837 34.0145 288.998 42.3975 288.367 54.7182C287.73 66.8868 287.73 78.4619 287.73 78.4619L276.617 78.5326C276.318 78.5346 276.075 78.7767 276.075 79.0747V87.9013C276.075 88.2 276.319 88.4425 276.619 88.4434L287.805 88.4788L287.692 92.7081H286.98L276.625 92.6377C276.322 92.6356 276.075 92.8789 276.075 93.1798V102.114C276.075 102.411 276.316 102.653 276.615 102.656L286.943 102.762H287.655V103.133L287.914 150.823C287.916 151.122 288.16 151.363 288.46 151.363H299.7C300.001 151.363 300.246 151.119 300.245 150.819Z" fill="white"/>
</g>
<defs>
<filter id="filter0_d" x="-2" y="0" width="339" height="167.506" filterUnits="userSpaceOnUse" color-interpolation-filters="sRGB">
<feFlood flood-opacity="0" result="BackgroundImageFix"/>
<feColorMatrix in="SourceAlpha" type="matrix" values="0 0 0 0 0 0 0 0 0 0 0 0 0 0 0 0 0 0 127 0"/>
<feOffset dy="2"/>
<feGaussianBlur stdDeviation="1"/>
<feColorMatrix type="matrix" values="0 0 0 0 0 0 0 0 0 0 0 0 0 0 0 0 0 0 0.3 0"/>
<feBlend mode="normal" in2="BackgroundImageFix" result="effect1_dropShadow"/>
<feBlend mode="normal" in="SourceGraphic" in2="effect1_dropShadow" result="shape"/>
</filter>
<linearGradient id="paint0_linear" x1="167.5" y1="-26.0123" x2="167.5" y2="195.092" gradientUnits="userSpaceOnUse">
<stop stop-color="#4960B0"/>
<stop offset="1" stop-color="#349090"/>
</linearGradient>
<clipPath id="clip0">
<rect width="335" height="167" fill="white"/>
</clipPath>
</defs>
</svg>
