<?xml version="1.0" encoding="UTF-8" standalone="no"?>
<svg
   xmlns:dc="http://purl.org/dc/elements/1.1/"
   xmlns:cc="http://creativecommons.org/ns#"
   xmlns:rdf="http://www.w3.org/1999/02/22-rdf-syntax-ns#"
   xmlns:svg="http://www.w3.org/2000/svg"
   xmlns="http://www.w3.org/2000/svg"
   xmlns:sodipodi="http://sodipodi.sourceforge.net/DTD/sodipodi-0.dtd"
   xmlns:inkscape="http://www.inkscape.org/namespaces/inkscape"
   width="335"
   height="167"
   viewBox="0 0 335 167"
   fill="none"
   version="1.1"
   id="svg32"
   sodipodi:docname="nano-mark.svg"
   inkscape:version="1.0.1 (0767f8302a, 2020-10-17)">
  <metadata
     id="metadata36">
    <rdf:RDF>
      <cc:Work
         rdf:about="">
        <dc:format>image/svg+xml</dc:format>
        <dc:type
           rdf:resource="http://purl.org/dc/dcmitype/StillImage" />
      </cc:Work>
    </rdf:RDF>
  </metadata>
  <sodipodi:namedview
     pagecolor="#ffffff"
     bordercolor="#666666"
     borderopacity="1"
     objecttolerance="10"
     gridtolerance="10"
     guidetolerance="10"
     inkscape:pageopacity="0"
     inkscape:pageshadow="2"
     inkscape:window-width="924"
     inkscape:window-height="1002"
     id="namedview34"
     showgrid="false"
     inkscape:zoom="1.8134328"
     inkscape:cx="150.54905"
     inkscape:cy="90.899085"
     inkscape:window-x="972"
     inkscape:window-y="54"
     inkscape:window-maximized="0"
     inkscape:current-layer="svg32" />
  <g
     filter="url(#filter0_d)"
     id="g4"
     transform="matrix(1.0097558,0,0,1.0097558,-1.6584272,-0.82673832)">
    <rect
       x="2"
       width="331"
       height="163"
       rx="17"
       fill="url(#paint0_linear)"
       id="rect2"
       style="fill:url(#paint0_linear)"
       y="0" />
  </g>
  <path
     opacity="0.25"
     fill-rule="evenodd"
     clip-rule="evenodd"
     d="m 217.4586,93.585434 c 0,-43.777359 35.48887,-79.265834 79.26582,-79.265834 13.69937,0 26.58789,3.475377 37.83052,9.592681 v 8.3424 c -10.99524,-6.794546 -23.95445,-10.71563 -37.8285,-10.71563 -39.7975,0 -72.06021,32.262306 -72.06021,72.059813 0,34.143586 23.74643,62.739866 55.62442,70.176726 l -20.45361,-0.0122 C 234.63858,150.49124 217.4586,124.04472 217.4586,93.585434 Z M 296.72644,22.41976 c -39.3108,0 -71.17869,31.867995 -71.17869,71.179104 0,35.206856 25.55995,64.443326 59.13534,70.164606 h 32.74133 c 9.4806,0 17.16585,-7.68525 17.16585,-17.16585 V 33.315127 C 323.62331,26.412637 310.6419,22.41976 296.72644,22.41976 Z m 2.78188,128.74296 -0.11309,-48.49554 h 0.0384 v -0.414 h 0.34028 l 14.88583,-0.1454 c 0.30292,-0.003 0.54627,-0.24941 0.54526,-0.55234 l -0.0334,-8.774377 c -0.001,-0.30323 -0.24739,-0.548399 -0.55032,-0.548399 h -14.81009 l 0.0758,-4.482709 14.58491,-0.108954 c 0.30192,-0.0023 0.54628,-0.248096 0.54628,-0.550417 v -9.144147 c 0,-0.306158 -0.2494,-0.553448 -0.55637,-0.550419 l -14.83937,0.145203 c -0.15147,-9.756563 -0.18882,-18.646858 0.53012,-23.317989 1.23292,-8.296255 12.62195,-6.155976 15.31699,-5.528716 0.31202,0.0725 0.62302,-0.125209 0.68663,-0.43884 l 2.08716,-10.391599 c 0.0576,-0.289093 -0.12924,-0.574652 -0.41702,-0.642406 -19.73972,-4.661034 -29.67067,3.851006 -30.30783,16.361174 -0.64321,12.355878 -0.64321,24.109133 -0.64321,24.109133 l -11.21738,0.07179 c -0.30292,0.0019 -0.54728,0.247795 -0.54728,0.550419 v 8.962391 c 0,0.30333 0.24536,0.549408 0.5493,0.550417 l 11.29109,0.03595 -0.1141,4.294392 h -0.71794 l -10.454,-0.07149 c -0.30495,-0.0021 -0.55435,0.244967 -0.55435,0.550418 v 9.071645 c 0,0.30192 0.24334,0.54729 0.54526,0.55032 l 10.42472,0.10805 h 0.71895 v 0.37663 l 0.26153,48.42385 c 0.002,0.30293 0.24738,0.54729 0.55032,0.54729 h 11.3456 c 0.30494,0 0.55132,-0.24739 0.55132,-0.55133 z"
     fill="#ffffff"
     id="path6"
     style="stroke-width:1.00976" />
  <path
     d="m 14.994265,4.2359352 h 3.134383 v 2.3066257 h -3.134383 z m -3.900486,0.6808682 c 1.103866,-0.3869081 2.258218,-0.6115788 3.42691,-0.6669739 l 0.09754,2.2927314 c -0.949574,0.039643 -1.888142,0.2175216 -2.786118,0.5280114 z M 6.2739321,8.1683082 C 7.0549076,7.2815204 7.966081,6.5178724 8.9764225,5.9033753 L 10.118658,7.876509 C 9.3062087,8.370118 8.5734289,8.9838678 7.9455627,9.6968362 Z M 3.6550293,13.365178 C 3.903611,12.214865 4.3263655,11.10908 4.9087523,10.085895 l 2.0059709,1.125474 C 6.4592627,12.042802 6.1306073,12.937243 5.939602,13.865411 Z m -0.2646772,5.405224 v -2.959696 c 0,0 0,-0.111174 0,-0.16671 h 2.2984972 v 3.098637 z m 0,5.224679 v -3.112573 h 2.2984972 v 3.126405 z m 0,5.224577 v -3.112471 h 2.2984972 v 3.126405 z m 0,5.224679 v -3.112573 h 2.2984972 v 3.126406 z m 0,5.210744 v -3.112572 h 2.2984972 v 3.126406 z m 0,5.224577 v -3.112471 h 2.2984972 v 3.126407 z m 0,5.224679 v -3.112572 h 2.2984972 v 3.126507 z m 0,5.224679 v -3.112573 h 2.2984972 v 3.195878 z m 0,5.224578 v -3.112573 h 2.2984972 v 3.126507 z m 0,5.224679 V 62.6657 h 2.2984972 v 3.126406 z m 0,5.210744 v -3.07087 h 2.2984972 v 3.126406 z m 0,5.224577 v -3.112572 h 2.2984972 v 3.154276 z m 0,5.224679 v -3.112572 h 2.2984972 v 3.126406 z m 0,5.224578 v -3.112472 h 2.2984972 v 3.126407 z m 0,5.224679 v -3.126508 h 2.2984972 v 3.126508 z m 0,5.224577 v -3.112471 h 2.2984972 v 3.098638 z m 0,5.210743 v -3.112469 h 2.2984972 v 3.126609 z m 0,5.22448 v -3.12621 h 2.2984972 v 3.12621 z m 0,5.22447 v -3.1676 h 2.2984972 v 3.12621 z m 0,5.22549 v -3.11307 h 2.2984972 v 3.12619 z m 0,5.22447 v -3.12721 h 2.2984972 v 3.12721 z m 0,5.22449 v -3.12621 h 2.2984972 v 3.12621 z m 0,5.21033 v -3.12619 h 2.2984972 v 3.12619 z m 0,5.22449 v -3.12621 h 2.2984972 v 3.12621 z m 0,5.22548 v -3.12722 h 2.2984972 v 3.12722 z m 0,5.30728 c 0,-0.41703 0,-0.84719 0,-1.26422 v -1.9458 h 2.2984972 v 1.9458 c 0,0.33322 0,0.68057 0,1.0148 z m 2.0756138,5.41936 c -0.6801614,-0.9512 -1.2109599,-2.00134 -1.5741185,-3.11207 l 2.1870504,-0.70885 c 0.293122,0.89061 0.7155231,1.73274 1.2537331,2.50117 z m 4.4577086,3.75225 C 8.8622191,158.07955 7.884937,157.41412 7.0261598,156.61136 l 1.560194,-1.6671 c 0.6919857,0.63715 1.4762632,1.16627 2.3263762,1.57017 z m 5.5721355,1.13901 h -0.501545 c -0.938771,0.003 -1.874511,-0.10906 -2.786018,-0.33323 l 0.543248,-2.23762 c 0.724702,0.17873 1.468589,0.26759 2.215001,0.26456 h 0.585053 z m 5.237806,0 H 17.68284 v -2.30629 h 3.134383 z m 5.237806,0 h -3.050776 v -2.30629 h 3.134384 z m 5.237805,0 h -2.981102 v -2.30629 h 3.064608 z m 5.223871,0 h -3.050776 v -2.30629 h 3.203956 z m 5.237805,0 h -3.050775 v -2.30629 h 3.134282 z m 5.237806,0 h -3.050775 v -2.30629 h 3.134282 z m 5.237805,0 h -3.022905 v -2.30629 h 3.134281 z m 5.237807,0 h -3.050776 v -2.30629 h 3.148216 z m 5.237704,0 H 59.57135 v -2.30629 h 3.134282 z m 5.223871,0 h -3.050675 v -2.30629 h 3.134282 z m 5.237805,0 h -3.064609 v -2.30629 h 3.134283 z m 5.237806,0 h -3.050674 v -2.30629 h 3.106413 z m 5.237806,0 h -3.050675 v -2.30629 h 3.134283 z m 5.237805,0 h -3.050674 v -2.30629 h 3.134282 z m 5.237806,0 h -3.050675 v -2.30629 h 3.134282 z m 5.223871,0 H 96.20812 v -2.30629 h 3.134282 z m 5.237405,0 h -3.13429 v -2.30629 h 3.13429 z m 5.23861,0 h -3.13429 v -2.30629 h 3.13429 z m 5.2376,0 h -3.13428 v -2.30629 h 3.13428 z m 5.23761,0 h -3.13429 v -2.30629 h 3.13429 z m 5.23761,0 h -3.05048 v -2.30629 h 3.13428 z m 5.22447,0 h -3.13429 v -2.30629 h 3.13429 z m 5.2376,0 h -3.13428 v -2.30629 h 3.13428 z m 5.23761,0 h -3.13429 v -2.30629 h 3.13429 z m 5.23759,0 h -3.13427 v -2.30629 h 3.13427 z m 5.23761,0 h -3.13428 v -2.30629 h 3.13428 z m 5.23862,0 h -3.13429 v -2.30629 h 3.13429 z m 5.22347,0 h -3.05048 v -2.30629 h 3.13429 z m 5.23759,0 h -3.13427 v -2.30629 h 3.13427 z m 5.23761,0 h -3.13428 v -2.30629 h 3.13428 z m 5.23862,0 h -3.1353 v -2.30629 h 3.1353 z m 5.23759,0 h -3.13427 v -2.30629 h 3.13427 z m 5.23761,0 h -3.05047 v -2.30629 h 3.20395 z m 5.22347,0 h -3.13428 v -2.30629 h 3.13428 z m 5.23861,0 h -3.13529 v -2.30629 h 3.13529 z m 5.2376,0 h -3.00907 v -2.30629 h 3.13429 z m 5.23761,0 h -3.13428 v -2.30629 h 3.24535 z m 5.2376,0 h -3.13428 v -2.30629 h 3.13428 z m 5.23761,0 h -3.13429 v -2.30629 h 3.13429 z m 5.2376,0 h -3.06461 v -2.30629 h 3.13428 z m 5.22447,0 h -3.13428 v -2.30629 h 3.20396 z m 5.23761,0 h -3.13429 v -2.30629 h 3.13429 z m 5.23761,0 h -3.13429 v -2.30629 h 3.13429 z m 5.2376,0 H 242.755 v -2.30629 h 3.13427 z m 5.23861,0 h -3.05148 v -2.30629 h 3.13428 z m 5.23761,0 h -3.13429 v -2.30629 h 3.13429 z m 5.22346,0 h -3.13428 v -2.30629 h 3.13428 z m 5.23761,0 h -3.13429 v -2.30629 h 3.13429 z m 5.23861,0 h -3.13429 v -2.30629 h 3.13429 z m 5.2376,0 h -3.13428 v -2.30629 h 3.13428 z m 5.23761,0 h -3.13429 v -2.30629 h 3.13429 z m 5.23759,0 h -3.13427 v -2.30629 h 3.13427 z m 5.22449,0 h -3.13429 v -2.30629 h 3.13429 z m 5.2376,0 h -3.13428 v -2.30629 h 3.13428 z m 5.2376,0 h -3.13428 v -2.30629 h 3.13428 z m 5.2376,0 h -3.13427 v -2.30629 h 3.13427 z m 5.23761,0 h -3.05047 v -2.30629 h 3.13428 z m 5.23861,0 h -3.13428 v -2.30629 h 3.13428 z m 5.57183,-1.02793 c -1.0774,0.48669 -2.22448,0.80477 -3.39883,0.94411 l -0.2787,-2.278 c 0.9623,-0.10401 1.90239,-0.35645 2.78592,-0.75127 z m 4.54087,-3.64119 c -0.70278,0.95321 -1.554,1.78828 -2.52136,2.4739 l -1.39244,-1.86199 c 0.76438,-0.55233 1.44092,-1.21777 2.00537,-1.97306 z m 2.18714,-5.37695 c -0.15449,1.1693 -0.48771,2.3083 -0.98855,3.37663 l -2.07606,-0.9734 c 0.40996,-0.8785 0.67754,-1.81656 0.79468,-2.77886 z m 0.098,-5.32242 v 3.12621 h -2.29821 v -3.14035 z m 0,-5.22448 v 3.1262 h -2.29821 v -3.1262 z m 0,-5.22448 v 3.12621 h -2.29821 v -3.11207 z m 0,-5.22447 v 3.15447 h -2.29821 v -3.12721 z m 0,-5.22448 v 3.12621 h -2.29821 v -3.0848 z m 0,-5.22549 v 3.12722 h -2.29821 v -3.12722 z m 0,-5.21033 v 3.1262 h -2.29821 v -3.1262 z m 0,-5.22449 v 3.19588 h -2.29821 v -3.1262 z m 0,-5.22447 v 3.12621 h -2.29821 v -3.04341 z m 0,-5.224879 V 100.475 h -2.29821 v -3.112775 z m 0,-5.224679 v 3.126507 h -2.29821 v -3.112573 z m 0,-5.224578 v 3.126406 h -2.29821 v -3.112572 z m 0,-5.210744 v 3.126406 h -2.29821 v -3.112573 z m 0,-5.224679 v 3.126507 h -2.29821 v -3.112572 z m 0,-5.224578 v 3.126407 h -2.29821 v -3.112573 z m 0,-5.224678 v 3.126406 h -2.29821 v -3.112472 z m 0,-5.224579 v 3.126407 h -2.29821 V 60.80371 Z m 0,-5.224678 v 3.126406 h -2.29821 v -3.112471 z m 0,-5.224679 v 3.126508 h -2.29821 v -3.112573 z m 0,-5.210744 v 3.126507 h -2.29821 V 45.14371 Z m 0,-5.224578 v 3.140341 h -2.29821 v -3.126507 z m 0,-5.224678 v 3.126506 h -2.29821 v -3.112572 z m 0,-5.224578 v 3.126406 h -2.29821 v -3.112573 z m 0,-5.224678 v 3.126506 h -2.29821 v -3.112572 z m 0,-5.224579 v 3.126407 h -2.29821 v -3.112573 z m -0.19489,-5.377556 c 0.1333,0.714807 0.19893,1.440619 0.19489,2.167744 v 1.125474 h -2.29821 v -1.11164 c 0.004,-0.582528 -0.0464,-1.164147 -0.15348,-1.736881 z M 328.8579,8.376742 c 0.75531,0.8860002 1.36621,1.88475 1.81152,2.959736 l -2.11747,0.889292 c -0.33928,-0.858697 -0.80881,-1.66014 -1.39346,-2.3761577 z m -4.72161,-3.376563 c 1.1279,0.4249154 2.18006,1.0252052 3.12014,1.7785941 l -1.39346,1.7924984 c -0.73106,-0.5849919 -1.54896,-1.0537005 -2.42341,-1.389525 z m -5.57285,-0.7781381 h 1.39348 c 0.62099,0.00197 1.23998,0.053083 1.85289,0.1528468 l -0.3625,2.264943 c -0.49276,-0.078417 -0.99158,-0.115607 -1.49039,-0.1111741 h -1.39348 z m -5.23759,0 h 3.25949 v 2.3066157 h -3.13429 z m -5.23761,0 h 3.13428 v 2.3066157 h -2.99493 z m -5.2376,0 h 3.13428 v 2.3066157 h -3.13428 z m -5.23761,0 h 3.13429 v 2.3066157 h -3.13429 z m -5.23861,0 h 3.13428 v 2.3066157 h -3.13428 z m -5.22346,0 h 3.13427 v 2.3066157 h -3.13427 z m -5.23761,0 h 3.13429 v 2.3066157 h -3.13429 z m -5.23761,0 h 3.13429 v 2.3066157 h -3.13429 z m -5.23861,0 h 3.13428 v 2.3066157 h -3.13428 z m -5.2376,0 h 3.13429 v 2.3066157 h -3.03634 z m -5.23761,0 h 3.13429 v 2.3066157 h -3.13429 z m -5.22346,0 h 3.13428 v 2.3066157 h -3.13428 z m -5.23861,0 h 3.13428 v 2.3066157 h -3.13428 z m -5.23761,0 h 3.13429 v 2.3066157 h -3.13429 z m -5.2376,0 h 3.13428 v 2.3066157 h -3.13428 z m -5.23761,0 h 3.13429 v 2.3066157 h -3.13429 z m -5.23759,0 h 3.13427 v 2.3066157 h -3.13427 z m -5.22449,0 h 3.13429 v 2.3066157 h -3.13429 z m -5.2376,0 h 3.13428 v 2.3066157 h -3.13428 z m -5.23761,0 h 3.13429 v 2.3066157 h -3.13429 z m -5.23759,0 h 3.13427 v 2.3066157 h -3.13427 z m -5.23862,0 h 3.13529 v 2.3066157 h -3.03735 z m -5.23761,0 h 3.13429 v 2.3066157 h -3.09188 z m -5.23759,0 h 3.13427 v 2.3066157 h -3.13427 z m -5.22347,0 h 3.13427 v 2.3066157 h -3.13427 z m -5.23761,0 h 3.20396 v 2.3066157 h -3.13529 z m -5.23861,0 h 3.13428 v 2.3066157 h -3.05047 z m -5.2376,0 h 3.13427 v 2.3066157 h -3.13427 z m -5.23761,0 h 3.13428 v 2.3066157 h -3.13428 z m -5.2376,0 h 3.25949 v 2.3066157 h -3.13429 z m -5.22448,0 h 3.13428 v 2.3066157 h -3.00806 z m -5.2376,0 h 3.13428 v 2.3066157 h -3.13428 z m -5.23761,0 h 3.13429 v 2.3066157 h -3.13429 z m -5.2376,0 h 3.30089 v 2.3066157 h -3.20395 z m -5.23761,0 h 3.13429 v 2.3066157 h -3.13429 z m -5.23861,0 h 3.13429 v 2.3066157 h -3.13429 z m -5.22346,0 h 3.13428 v 2.3066157 h -3.13428 z m -5.23761,0 h 3.13429 v 2.3066157 h -3.13429 z m -5.2376,0 h 3.13428 v 2.3066157 h -3.13428 z m -5.23861,0 h 3.13428 v 2.3066157 h -3.13428 z m -5.23761,0 h 3.13429 v 2.3066157 h -3.13429 z m -5.237602,0 h 3.134282 v 2.3066157 h -3.03674 z m -5.223871,0 h 3.134281 v 2.3066157 h -3.036759 z m -5.237806,0 h 3.134282 v 2.3066157 h -3.036739 z m -5.237806,0 h 3.134363 v 2.3066157 h -3.036841 z m -5.237805,0 h 3.134383 v 2.3066157 h -3.036841 z m -5.237806,0 h 3.134383 v 2.3066157 h -3.03684 z m -5.237805,0 h 3.134383 v 2.3066157 h -3.036841 z m -5.223871,0 h 3.134383 V 6.5286566 H 62.1206 Z m -5.237806,0 h 3.134383 v 2.3066157 h -3.03684 z m -5.237806,0 h 3.134384 v 2.3066157 h -3.036841 z m -5.237805,0 h 3.231926 v 2.3066157 h -3.134384 z m -5.237704,0 h 3.134281 v 2.3066157 h -3.03684 z m -5.237807,0 h 3.134283 v 2.3066157 h -3.036841 z m -5.223871,0 h 3.190021 v 2.3066157 h -3.092579 z m -5.237805,0 h 3.134282 v 2.3066157 h -3.06471 z m -5.237805,0 h 3.134282 V 6.5286566 H 20.23209 Z"
     fill="#ffffff"
     id="path8"
     style="stroke-width:1.00976" />
  <defs
     id="defs30">
    <filter
       id="filter0_d"
       x="0"
       y="0"
       width="335"
       height="167"
       filterUnits="userSpaceOnUse"
       color-interpolation-filters="sRGB">
      <feFlood
         flood-opacity="0"
         result="BackgroundImageFix"
         id="feFlood10" />
      <feColorMatrix
         in="SourceAlpha"
         type="matrix"
         values="0 0 0 0 0 0 0 0 0 0 0 0 0 0 0 0 0 0 127 0"
         id="feColorMatrix12" />
      <feOffset
         dy="2"
         id="feOffset14" />
      <feGaussianBlur
         stdDeviation="1"
         id="feGaussianBlur16" />
      <feColorMatrix
         type="matrix"
         values="0 0 0 0 0 0 0 0 0 0 0 0 0 0 0 0 0 0 0.3 0"
         id="feColorMatrix18" />
      <feBlend
         mode="normal"
         in2="BackgroundImageFix"
         result="effect1_dropShadow"
         id="feBlend20" />
      <feBlend
         mode="normal"
         in="SourceGraphic"
         in2="effect1_dropShadow"
         result="shape"
         id="feBlend22" />
    </filter>
    <linearGradient
       id="paint0_linear"
       x1="167"
       y1="81"
       x2="167"
       y2="191"
       gradientUnits="userSpaceOnUse">
      <stop
         stop-color="#FF4C4C"
         id="stop25" />
      <stop
         offset="1"
         stop-color="#FFB6A6"
         id="stop27" />
    </linearGradient>
  </defs>
</svg>
