<svg width="515" height="243" viewBox="0 0 515 243" fill="none" xmlns="http://www.w3.org/2000/svg">
<path d="M30.0424 69.4389H29.0424V70.4389V104.19C29.0424 105.294 28.1469 106.19 27.0424 106.19H11.9614C10.8569 106.19 9.96143 105.294 9.96143 104.19V6.06257C9.96143 4.958 10.8569 4.06257 11.9614 4.06257H72.2594C73.364 4.06257 74.2594 4.958 74.2594 6.06257V20.4379H30.0424H29.0424V21.4379V52.0635V53.0635H30.0424H66.0103V69.4389H30.0424ZM182.38 86.3642V86.4057L182.384 86.4471C182.589 88.9205 183.008 90.8541 183.744 92.0842L183.757 92.1046L183.77 92.1244C184.195 92.7636 184.817 93.2624 185.565 93.6503C186.689 94.2331 187.358 95.1381 187.322 96.0526L186.925 106.106C186.882 107.187 185.998 108.018 184.955 107.988C181.115 107.878 177.972 107.538 175.508 106.981C172.596 106.299 169.603 104.929 166.527 102.84L166.051 102.517L165.532 102.766C158.22 106.281 150.882 108.027 143.51 108.027C135.787 108.027 130.174 105.982 126.479 102.063C122.773 98.1325 120.832 92.1452 120.832 83.9142C120.832 75.9037 122.978 70.5054 127.01 67.4033L127.016 67.3989L127.022 67.3944C131.171 64.1057 137.656 62.09 146.632 61.4833L146.64 61.4828L162.985 60.2578L163.91 60.1884V59.2606V54.5136C163.91 51.272 163.193 48.7285 161.407 47.3099C159.712 45.8632 157.133 45.2447 153.898 45.2447H153.876L153.855 45.2456L128.133 46.3428C127.029 46.3899 126.096 45.5337 126.049 44.4303L125.67 35.5868C125.629 34.6478 126.245 33.8173 127.138 33.5922C137.21 31.0531 146.74 29.7881 155.731 29.7881C165.514 29.7881 172.274 31.8175 176.274 35.6365C180.271 39.4523 182.38 45.6629 182.38 54.5136V86.3642ZM163.91 73.5015V72.4095L162.823 72.5053L148.921 73.7304L148.92 73.7305C145.914 73.9995 143.509 74.9556 141.861 76.7248C140.211 78.4969 139.455 80.9421 139.455 83.9142C139.455 86.8485 140.104 89.2361 141.578 90.895C143.073 92.5765 145.258 93.3362 147.94 93.3362C151.914 93.3362 156.228 92.7074 160.877 91.4648L163.169 90.8523L163.91 90.654V89.8862V73.5015ZM257.012 38.7414V40.4816L258.516 39.6054C265.851 35.3304 272.726 32.3351 279.143 30.6004C280.295 30.2892 281.454 31.1741 281.454 32.459V46.9903C281.454 47.9443 280.777 48.7721 279.83 48.9675C276.556 49.6429 273.477 50.3521 270.594 51.0952L270.587 51.097C267.113 52.0188 263.892 52.9414 260.923 53.865L260.906 53.8703L260.889 53.8762L257.834 54.9481L257.165 55.1828V55.8917V104.19C257.165 105.294 256.269 106.19 255.165 106.19H240.695C239.59 106.19 238.695 105.294 238.695 104.19V33.6256C238.695 32.521 239.59 31.6256 240.695 31.6256H255.012C256.117 31.6256 257.012 32.521 257.012 33.6256V38.7414ZM311.558 38.7414V40.4816L313.062 39.6054C320.397 35.3304 327.272 32.3351 333.69 30.6004C334.841 30.2892 336 31.1741 336 32.459V46.9903C336 47.9443 335.323 48.7721 334.376 48.9675C331.102 49.6429 328.023 50.3521 325.141 51.0952L325.134 51.097C321.66 52.0188 318.438 52.9414 315.469 53.865L315.452 53.8703L315.435 53.8762L312.38 54.9481L311.711 55.1828V55.8917V104.19C311.711 105.294 310.816 106.19 309.711 106.19H295.241C294.137 106.19 293.241 105.294 293.241 104.19V33.6256C293.241 32.521 294.137 31.6256 295.241 31.6256H309.558C310.663 31.6256 311.558 32.521 311.558 33.6256V38.7414ZM106.377 104.19C106.377 105.294 105.482 106.19 104.377 106.19H89.9074C88.8028 106.19 87.9074 105.294 87.9074 104.19V3C87.9074 1.89543 88.8028 1 89.9074 1H104.377C105.482 1 106.377 1.89543 106.377 3V104.19ZM220.073 104.19C220.073 105.294 219.177 106.19 218.073 106.19H203.603C202.498 106.19 201.603 105.294 201.603 104.19V33.6256C201.603 32.521 202.498 31.6256 203.603 31.6256H218.073C219.177 31.6256 220.073 32.521 220.073 33.6256V104.19ZM220.073 17.8254C220.073 18.93 219.177 19.8254 218.073 19.8254H203.603C202.498 19.8254 201.603 18.93 201.603 17.8254V3C201.603 1.89543 202.498 1 203.603 1H218.073C219.177 1 220.073 1.89543 220.073 3V17.8254Z" fill="url(#paint0_linear)" stroke="url(#paint1_linear)" stroke-width="2"/>
<path d="M47.0502 206.814H47.8618L48.0288 206.02L65.5536 122.651C65.7482 121.725 66.5648 121.063 67.5108 121.063H83.4512C84.7382 121.063 85.6902 122.26 85.3996 123.514L62.6542 221.641C62.4441 222.548 61.6364 223.19 60.7059 223.19H26.5203C25.5897 223.19 24.7821 222.548 24.5719 221.641L1.82658 123.514C1.53597 122.26 2.48795 121.063 3.77492 121.063H19.7153C20.6613 121.063 21.4779 121.725 21.6725 122.651L39.1974 206.02L39.3643 206.814H40.176H47.0502ZM154.287 203.364V203.406L154.29 203.447C154.496 205.921 154.915 207.854 155.651 209.084L155.663 209.105L155.676 209.124C156.101 209.764 156.724 210.262 157.472 210.65C158.595 211.233 159.265 212.138 159.229 213.053L158.831 223.106C158.789 224.187 157.905 225.018 156.862 224.988C153.022 224.878 149.878 224.538 147.415 223.981C144.503 223.299 141.51 221.929 138.434 219.84L137.958 219.517L137.439 219.766C130.127 223.281 122.789 225.027 115.416 225.027C107.693 225.027 102.081 222.982 98.3856 219.063C94.6798 215.133 92.7385 209.145 92.7385 200.914C92.7385 192.904 94.8846 187.505 98.917 184.403L98.9227 184.399L98.9284 184.394C103.078 181.106 109.562 179.09 118.539 178.483L118.546 178.483L134.892 177.258L135.817 177.188V176.261V171.514C135.817 168.272 135.099 165.729 133.314 164.31C131.618 162.863 129.04 162.245 125.804 162.245H125.783L125.761 162.246L100.039 163.343C98.9357 163.39 98.003 162.534 97.9557 161.43L97.5762 152.587C97.5359 151.648 98.1515 150.817 99.0445 150.592C109.116 148.053 118.646 146.788 127.637 146.788C137.42 146.788 144.18 148.818 148.18 152.637C152.177 156.452 154.287 162.663 154.287 171.514V203.364ZM135.817 190.501V189.409L134.729 189.505L120.828 190.73L120.827 190.73C117.821 191 115.415 191.956 113.768 193.725C112.118 195.497 111.361 197.942 111.361 200.914C111.361 203.849 112.011 206.236 113.485 207.895C114.979 209.576 117.165 210.336 119.846 210.336C123.821 210.336 128.135 209.707 132.784 208.465L135.075 207.852L135.817 207.654V206.886V190.501ZM217.868 205.851L218.574 205.634V204.896V150.626C218.574 149.521 219.469 148.626 220.574 148.626H235.044C236.148 148.626 237.044 149.521 237.044 150.626V221.19C237.044 222.294 236.148 223.19 235.044 223.19H220.726C219.622 223.19 218.726 222.294 218.726 221.19V219.902V218.189L217.235 219.031C210.084 223.07 203.892 225.027 198.631 225.027C193.416 225.027 189.178 224.322 185.876 222.959C182.593 221.604 180.002 219.486 178.078 216.592C176.139 213.677 174.752 209.89 173.954 205.187C173.151 200.358 172.746 194.547 172.746 187.745V150.626C172.746 149.521 173.641 148.626 174.746 148.626H189.215C190.32 148.626 191.215 149.521 191.215 150.626V188.051C191.215 191.844 191.318 195.037 191.524 197.625L191.526 197.647L191.529 197.669C191.842 200.179 192.37 202.281 193.142 203.939L193.153 203.964L193.166 203.987C194.063 205.673 195.279 206.92 196.837 207.641L196.849 207.646L196.862 207.652C198.459 208.338 200.493 208.652 202.909 208.652C207.392 208.652 211.725 207.921 215.901 206.458L217.868 205.851ZM317.061 164.082H316.061V165.082V196.473V196.482V196.491V196.5V196.509V196.518V196.527V196.536V196.545V196.554V196.563V196.572V196.581V196.59V196.599V196.608V196.616V196.625V196.634V196.643V196.652V196.661V196.67V196.679V196.687V196.696V196.705V196.714V196.723V196.732V196.741V196.749V196.758V196.767V196.776V196.785V196.793V196.802V196.811V196.82V196.829V196.837V196.846V196.855V196.864V196.872V196.881V196.89V196.899V196.908V196.916V196.925V196.934V196.942V196.951V196.96V196.969V196.977V196.986V196.995V197.003V197.012V197.021V197.029V197.038V197.047V197.055V197.064V197.073V197.081V197.09V197.099V197.107V197.116V197.125V197.133V197.142V197.15V197.159V197.168V197.176V197.185V197.193V197.202V197.211V197.219V197.228V197.236V197.245V197.253V197.262V197.271V197.279V197.288V197.296V197.305V197.313V197.322V197.33V197.339V197.347V197.356V197.364V197.373V197.381V197.39V197.398V197.407V197.415V197.424V197.432V197.441V197.449V197.458V197.466V197.474V197.483V197.491V197.5V197.508V197.517V197.525V197.533V197.542V197.55V197.559V197.567V197.575V197.584V197.592V197.6V197.609V197.617V197.625V197.634V197.642V197.65V197.659V197.667V197.675V197.684V197.692V197.7V197.709V197.717V197.725V197.734V197.742V197.75V197.758V197.767V197.775V197.783V197.792V197.8V197.808V197.816V197.825V197.833V197.841V197.849V197.857V197.866V197.874V197.882V197.89V197.898V197.907V197.915V197.923V197.931V197.939V197.948V197.956V197.964V197.972V197.98V197.988V197.997V198.005V198.013V198.021V198.029V198.037V198.045V198.053V198.061V198.07V198.078V198.086V198.094V198.102V198.11V198.118V198.126V198.134V198.142V198.15V198.158V198.166V198.174V198.183V198.191V198.199V198.207V198.215V198.223V198.231V198.239V198.247V198.255V198.263V198.271V198.279V198.287V198.295V198.302V198.31V198.318V198.326V198.334V198.342V198.35V198.358V198.366V198.374V198.382V198.39V198.398V198.406V198.414V198.421V198.429V198.437V198.445V198.453V198.461V198.469V198.477V198.484V198.492V198.5V198.508V198.516V198.524V198.531V198.539V198.547V198.555V198.563V198.571V198.578V198.586V198.594V198.602V198.609V198.617V198.625V198.633V198.641V198.648V198.656V198.664V198.672V198.679V198.687V198.695V198.703V198.71V198.718V198.726V198.733V198.741V198.749V198.756V198.764V198.772V198.78V198.787V198.795V198.803V198.81V198.818V198.826V198.833V198.841V198.848V198.856V198.864V198.871V198.879V198.887V198.894V198.902V198.909V198.917V198.925V198.932V198.94V198.947V198.955V198.962V198.97V198.978V198.985V198.993V199V199.008V199.015V199.023V199.03V199.038V199.045V199.053V199.06V199.068V199.075V199.083V199.09V199.098V199.105V199.113V199.12V199.128V199.135V199.143V199.15V199.158V199.165V199.172V199.18V199.187V199.195V199.202V199.21V199.217V199.224V199.232V199.239V199.247V199.254V199.261V199.269V199.276V199.283V199.291V199.298V199.306V199.313V199.32V199.328V199.335V199.342V199.35V199.357V199.364V199.372V199.379V199.386V199.393V199.401V199.408V199.415V199.423V199.43V199.437V199.444V199.452V199.459V199.466V199.473V199.481V199.488V199.495V199.502V199.51V199.517V199.524V199.531V199.538V199.546V199.553V199.56V199.567V199.574V199.581V199.589V199.596V199.603V199.61V199.617V199.624V199.632V199.639V199.646V199.653V199.66V199.667V199.674V199.681V199.689V199.696V199.703V199.71V199.717V199.724V199.731V199.738V199.745V199.752V199.759V199.766V199.773V199.781V199.788V199.795V199.802V199.809V199.816V199.823V199.83V199.837V199.844V199.851V199.858V199.865V199.872V199.879V199.886V199.893V199.9V199.907V199.913V199.92V199.927V199.934V199.941V199.948V199.955V199.962V199.969V199.976V199.983V199.99V199.997V200.003V200.01V200.017V200.024V200.031V200.038V200.045V200.052V200.058V200.065V200.072V200.079V200.086V200.093V200.1V200.106V200.113V200.12V200.127V200.134V200.14V200.147V200.154V200.161V200.168V200.174V200.181V200.188V200.195V200.201V200.208V200.215V200.222V200.228V200.235V200.242V200.249V200.255V200.262V200.269V200.275V200.282V200.289V200.296V200.302V200.309V200.316V200.322V200.329V200.336V200.342V200.349V200.356V200.362V200.369V200.376V200.382V200.389V200.395V200.402V200.409V200.415V200.422V200.428V200.435V200.442V200.448V200.455V200.505L316.066 200.554C316.169 201.581 316.272 202.419 316.379 203.062C316.614 204.589 317.268 205.906 318.339 206.98C319.526 208.17 321.321 208.652 323.477 208.652H323.49L323.503 208.651L332.202 208.422C333.283 208.394 334.191 209.23 334.251 210.31L334.863 221.248C334.918 222.228 334.257 223.093 333.315 223.29C327.723 224.458 323.437 225.027 320.422 225.027C315.905 225.027 312.202 224.523 309.282 223.547L309.267 223.543L309.253 223.538C306.369 222.671 304.101 221.192 302.407 219.117C300.7 217.025 299.431 214.226 298.64 210.667C297.945 206.974 297.591 202.4 297.591 196.933V165.082V164.082H296.591H290.578C289.474 164.082 288.578 163.187 288.578 162.082V150.626C288.578 149.521 289.474 148.626 290.578 148.626H296.591H297.591V147.626V129.341C297.591 128.236 298.487 127.341 299.591 127.341H314.061C315.166 127.341 316.061 128.236 316.061 129.341V147.626V148.626H317.061H332.851C333.955 148.626 334.851 149.521 334.851 150.626V162.082C334.851 163.187 333.955 164.082 332.851 164.082H317.061ZM275.04 221.19C275.04 222.294 274.145 223.19 273.04 223.19H258.57C257.466 223.19 256.57 222.294 256.57 221.19V120C256.57 118.895 257.466 118 258.57 118H273.04C274.145 118 275.04 118.895 275.04 120V221.19Z" fill="url(#paint2_linear)" stroke="url(#paint3_linear)" stroke-width="2"/>
<g filter="url(#filter0_d)">
<path d="M367 9C355.126 9 345 18.6259 345 30.5C345 35.1589 346.982 39.9789 349.5 43.5C356.5 52.5071 360 55.5 360 61C360 66.5 356.5 69.4929 349.5 78.5C346.982 82.0211 345 86.8411 345 91.5C345 103.374 355.126 113.5 367 113.5C371.659 113.5 376.479 111.518 380 109C389.007 102 392 98.5 397.5 98.5C403 98.5 411.5 105.5 412.75 106.75C414 108 421 116.5 421 122C421 127.5 417.5 130.493 410.5 139.5C407.982 143.021 406 147.841 406 152.5C406 164.374 416.126 174 428 174C439.874 174 450 164.374 450 152.5C450 147.841 448.018 143.021 445.5 139.5C438.5 130.493 435 127.5 435 122C435 116.5 438.5 113.507 445.5 104.5C448.018 100.979 450 96.1589 450 91.5C450 79.6259 439.874 69.5 428 69.5C423.341 69.5 418.521 71.4819 415 74C405.993 81 403 84.5 397.5 84.5C392 84.5 384 78 382.25 76.25C380.5 74.5 374 66.5 374 61C374 55.5 377.5 52.5071 384.5 43.5C387.018 39.9789 389 35.1589 389 30.5C389 18.6259 378.874 9 367 9Z" fill="#5990DC"/>
</g>
<g filter="url(#filter1_d)">
<circle cx="367" cy="152.5" r="21.5" fill="#BBCFE7"/>
</g>
<g filter="url(#filter2_d)">
<circle cx="428" cy="30.5" r="21.5" fill="#BBCFE7"/>
</g>
<g filter="url(#filter3_d)">
<circle cx="428" cy="213.5" r="21.5" fill="#BBCFE7"/>
</g>
<g filter="url(#filter4_d)">
<circle cx="489" cy="30.5" r="21.5" fill="#BBCFE7"/>
</g>
<g filter="url(#filter5_d)">
<circle cx="489" cy="91.5" r="21.5" fill="#BBCFE7"/>
</g>
<g filter="url(#filter6_d)">
<circle cx="489" cy="152.5" r="21.5" fill="#BBCFE7"/>
</g>
<defs>
<filter id="filter0_d" x="341" y="9" width="113" height="173" filterUnits="userSpaceOnUse" color-interpolation-filters="sRGB">
<feFlood flood-opacity="0" result="BackgroundImageFix"/>
<feColorMatrix in="SourceAlpha" type="matrix" values="0 0 0 0 0 0 0 0 0 0 0 0 0 0 0 0 0 0 127 0"/>
<feOffset dy="4"/>
<feGaussianBlur stdDeviation="2"/>
<feColorMatrix type="matrix" values="0 0 0 0 0 0 0 0 0 0 0 0 0 0 0 0 0 0 0.5 0"/>
<feBlend mode="normal" in2="BackgroundImageFix" result="effect1_dropShadow"/>
<feBlend mode="normal" in="SourceGraphic" in2="effect1_dropShadow" result="shape"/>
</filter>
<filter id="filter1_d" x="341.5" y="131" width="51" height="51" filterUnits="userSpaceOnUse" color-interpolation-filters="sRGB">
<feFlood flood-opacity="0" result="BackgroundImageFix"/>
<feColorMatrix in="SourceAlpha" type="matrix" values="0 0 0 0 0 0 0 0 0 0 0 0 0 0 0 0 0 0 127 0"/>
<feOffset dy="4"/>
<feGaussianBlur stdDeviation="2"/>
<feColorMatrix type="matrix" values="0 0 0 0 0 0 0 0 0 0 0 0 0 0 0 0 0 0 0.5 0"/>
<feBlend mode="normal" in2="BackgroundImageFix" result="effect1_dropShadow"/>
<feBlend mode="normal" in="SourceGraphic" in2="effect1_dropShadow" result="shape"/>
</filter>
<filter id="filter2_d" x="402.5" y="9" width="51" height="51" filterUnits="userSpaceOnUse" color-interpolation-filters="sRGB">
<feFlood flood-opacity="0" result="BackgroundImageFix"/>
<feColorMatrix in="SourceAlpha" type="matrix" values="0 0 0 0 0 0 0 0 0 0 0 0 0 0 0 0 0 0 127 0"/>
<feOffset dy="4"/>
<feGaussianBlur stdDeviation="2"/>
<feColorMatrix type="matrix" values="0 0 0 0 0 0 0 0 0 0 0 0 0 0 0 0 0 0 0.5 0"/>
<feBlend mode="normal" in2="BackgroundImageFix" result="effect1_dropShadow"/>
<feBlend mode="normal" in="SourceGraphic" in2="effect1_dropShadow" result="shape"/>
</filter>
<filter id="filter3_d" x="402.5" y="192" width="51" height="51" filterUnits="userSpaceOnUse" color-interpolation-filters="sRGB">
<feFlood flood-opacity="0" result="BackgroundImageFix"/>
<feColorMatrix in="SourceAlpha" type="matrix" values="0 0 0 0 0 0 0 0 0 0 0 0 0 0 0 0 0 0 127 0"/>
<feOffset dy="4"/>
<feGaussianBlur stdDeviation="2"/>
<feColorMatrix type="matrix" values="0 0 0 0 0 0 0 0 0 0 0 0 0 0 0 0 0 0 0.5 0"/>
<feBlend mode="normal" in2="BackgroundImageFix" result="effect1_dropShadow"/>
<feBlend mode="normal" in="SourceGraphic" in2="effect1_dropShadow" result="shape"/>
</filter>
<filter id="filter4_d" x="463.5" y="9" width="51" height="51" filterUnits="userSpaceOnUse" color-interpolation-filters="sRGB">
<feFlood flood-opacity="0" result="BackgroundImageFix"/>
<feColorMatrix in="SourceAlpha" type="matrix" values="0 0 0 0 0 0 0 0 0 0 0 0 0 0 0 0 0 0 127 0"/>
<feOffset dy="4"/>
<feGaussianBlur stdDeviation="2"/>
<feColorMatrix type="matrix" values="0 0 0 0 0 0 0 0 0 0 0 0 0 0 0 0 0 0 0.5 0"/>
<feBlend mode="normal" in2="BackgroundImageFix" result="effect1_dropShadow"/>
<feBlend mode="normal" in="SourceGraphic" in2="effect1_dropShadow" result="shape"/>
</filter>
<filter id="filter5_d" x="463.5" y="70" width="51" height="51" filterUnits="userSpaceOnUse" color-interpolation-filters="sRGB">
<feFlood flood-opacity="0" result="BackgroundImageFix"/>
<feColorMatrix in="SourceAlpha" type="matrix" values="0 0 0 0 0 0 0 0 0 0 0 0 0 0 0 0 0 0 127 0"/>
<feOffset dy="4"/>
<feGaussianBlur stdDeviation="2"/>
<feColorMatrix type="matrix" values="0 0 0 0 0 0 0 0 0 0 0 0 0 0 0 0 0 0 0.5 0"/>
<feBlend mode="normal" in2="BackgroundImageFix" result="effect1_dropShadow"/>
<feBlend mode="normal" in="SourceGraphic" in2="effect1_dropShadow" result="shape"/>
</filter>
<filter id="filter6_d" x="463.5" y="131" width="51" height="51" filterUnits="userSpaceOnUse" color-interpolation-filters="sRGB">
<feFlood flood-opacity="0" result="BackgroundImageFix"/>
<feColorMatrix in="SourceAlpha" type="matrix" values="0 0 0 0 0 0 0 0 0 0 0 0 0 0 0 0 0 0 127 0"/>
<feOffset dy="4"/>
<feGaussianBlur stdDeviation="2"/>
<feColorMatrix type="matrix" values="0 0 0 0 0 0 0 0 0 0 0 0 0 0 0 0 0 0 0.5 0"/>
<feBlend mode="normal" in2="BackgroundImageFix" result="effect1_dropShadow"/>
<feBlend mode="normal" in="SourceGraphic" in2="effect1_dropShadow" result="shape"/>
</filter>
<linearGradient id="paint0_linear" x1="173" y1="-79.5" x2="173" y2="55" gradientUnits="userSpaceOnUse">
<stop stop-color="#C0C0C0"/>
<stop offset="1"/>
</linearGradient>
<linearGradient id="paint1_linear" x1="1.43381e-08" y1="113" x2="337" y2="113" gradientUnits="userSpaceOnUse">
<stop stop-color="#BBCFE7"/>
<stop offset="1" stop-color="#0052C4"/>
</linearGradient>
<linearGradient id="paint2_linear" x1="168" y1="63.5" x2="168" y2="172" gradientUnits="userSpaceOnUse">
<stop stop-color="#BFBFBF"/>
<stop offset="1"/>
</linearGradient>
<linearGradient id="paint3_linear" x1="0" y1="113.027" x2="337" y2="113.027" gradientUnits="userSpaceOnUse">
<stop stop-color="#BBCFE7"/>
<stop offset="1" stop-color="#0052C4"/>
</linearGradient>
</defs>
</svg>
