<?xml version="1.0" encoding="UTF-8" standalone="no"?>
<svg
   xmlns:dc="http://purl.org/dc/elements/1.1/"
   xmlns:cc="http://creativecommons.org/ns#"
   xmlns:rdf="http://www.w3.org/1999/02/22-rdf-syntax-ns#"
   xmlns:svg="http://www.w3.org/2000/svg"
   xmlns="http://www.w3.org/2000/svg"
   xmlns:sodipodi="http://sodipodi.sourceforge.net/DTD/sodipodi-0.dtd"
   xmlns:inkscape="http://www.inkscape.org/namespaces/inkscape"
   version="1.1"
   id="Layer_1"
   x="0px"
   y="0px"
   viewBox="443 143.1 1498.3 506.9"
   style="enable-background:new 443 143.1 1498.3 506.9;"
   xml:space="preserve"
   sodipodi:docname="nault-logo.svg"
   inkscape:version="1.0.1 (3bc2e813f5, 2020-09-07)"><metadata
   id="metadata171"><rdf:RDF><cc:Work
       rdf:about=""><dc:format>image/svg+xml</dc:format><dc:type
         rdf:resource="http://purl.org/dc/dcmitype/StillImage" /></cc:Work></rdf:RDF></metadata><defs
   id="defs169" /><sodipodi:namedview
   pagecolor="#ffffff"
   bordercolor="#666666"
   borderopacity="1"
   objecttolerance="10"
   gridtolerance="10"
   guidetolerance="10"
   inkscape:pageopacity="0"
   inkscape:pageshadow="2"
   inkscape:window-width="1872"
   inkscape:window-height="1002"
   id="namedview167"
   showgrid="false"
   inkscape:zoom="0.56030168"
   inkscape:cx="687.00441"
   inkscape:cy="230.89222"
   inkscape:window-x="1944"
   inkscape:window-y="54"
   inkscape:window-maximized="0"
   inkscape:current-layer="g164" />
<style
   type="text/css"
   id="style146">
	.st0{fill:#4A90E2;}
	.st1{fill:#B7CFEA;}
	.st2{fill:#1A202C;}
</style>
<g
   transform="translate(-233.7 -345.73)"
   id="g164">
	<path
   class="st0"
   d="M826,845.9c-19.6-19.6-19.6-51.2,0-70.8c26.6-26.6,26.5-38.3,0-64.8c-26.5-26.5-37.3-26.5-63.8,0   c-19.5,19.5-51.2,19.5-70.8,0c-12.1-12.1-17.2-29.5-13.5-46.2c2-9.5,6.7-18.2,13.6-25c26.6-26.6,26.5-38.3,0-64.8   c-19.6-19.5-19.6-51.2-0.1-70.8c0,0,0,0,0,0c9.4-9.4,22.1-14.7,35.4-14.7c13.3,0,26,5.3,35.4,14.7c19.6,19.6,19.6,51.2,0,70.8   c-26.6,26.6-26.5,38.3,0,64.8c26.5,26.5,37.3,26.5,63.8,0c19.5-19.5,51.2-19.5,70.8,0c12.1,12.1,17.2,29.5,13.5,46.2   c-2,9.5-6.7,18.2-13.6,25c-26.6,26.6-26.5,38.3,0,64.8c19.6,19.5,19.6,51.2,0.1,70.8c0,0,0,0,0,0   C877.2,865.5,845.5,865.5,826,845.9L826,845.9z"
   id="path148" />
	<path
   class="st1"
   d="M727,760.7c27.6,0,50,22.4,50,50s-22.4,50-50,50s-50-22.4-50-50S699.4,760.7,727,760.7z"
   id="path150" />
	<path
   class="st1"
   d="M862,490.7c27.6,0,50,22.4,50,50c0,27.6-22.4,50-50,50s-50-22.4-50-50C812,513.1,834.4,490.7,862,490.7z"
   id="path152" />
	<path
   class="st1"
   d="M997,490.7c27.6,0,50,22.4,50,50c0,27.6-22.4,50-50,50s-50-22.4-50-50C947,513.1,969.4,490.7,997,490.7z"
   id="path154" />
	<path
   class="st1"
   d="M997,625.7c27.6,0,50,22.4,50,50c0,27.6-22.4,50-50,50s-50-22.4-50-50C947,648.1,969.4,625.7,997,625.7z"
   id="path156" />
	<path
   class="st1"
   d="M997,760.7c27.6,0,50,22.4,50,50s-22.4,50-50,50s-50-22.4-50-50S969.4,760.7,997,760.7z"
   id="path158" />
	<path
   class="st1"
   d="M862,895.7c27.6,0,50,22.4,50,50s-22.4,50-50,50s-50-22.4-50-50S834.4,895.7,862,895.7z"
   id="path160" />
	
<text
   xml:space="preserve"
   style="font-style:normal;font-weight:normal;font-size:250.968px;line-height:0.85;font-family:sans-serif;fill:#000000;fill-opacity:1;stroke:none;stroke-width:6.27417"
   x="1299.3671"
   y="719.35461"
   id="text175"><tspan
     sodipodi:role="line"
     id="tspan173"
     x="1299.3671"
     y="719.35461"
     style="font-style:normal;font-variant:normal;font-weight:bold;font-stretch:normal;font-family:sans-serif;-inkscape-font-specification:'sans-serif Bold';stroke-width:6.27417">Flairr</tspan><tspan
     sodipodi:role="line"
     x="1299.3671"
     y="932.67743"
     style="font-style:normal;font-variant:normal;font-weight:bold;font-stretch:normal;font-family:sans-serif;-inkscape-font-specification:'sans-serif Bold';stroke-width:6.27417"
     id="tspan177">Vault</tspan></text></g>
</svg>
