<svg width="520" height="520" viewBox="0 0 520 520" fill="none" xmlns="http://www.w3.org/2000/svg">
<circle cx="259.5" cy="260.5" r="259.5" fill="white"/>
<path fill-rule="evenodd" clip-rule="evenodd" d="M259.5 520C402.818 520 519 403.818 519 260.5C519 117.182 402.818 1 259.5 1C116.182 1 0 117.182 0 260.5C0 403.818 116.182 520 259.5 520ZM268.246 290.267L268.617 450.586C268.618 450.724 268.506 450.836 268.367 450.836H228.124C227.987 450.836 227.875 450.725 227.874 450.588L227.009 290.514V289.28H224.656L188.991 288.913C188.854 288.912 188.743 288.8 188.743 288.663V255.864C188.743 255.726 188.856 255.613 188.995 255.614L224.78 255.859H227.133L227.504 241.8L188.992 241.678C188.855 241.677 188.743 241.565 188.743 241.428V208.997C188.743 208.86 188.854 208.748 188.992 208.747L227.256 208.502C227.256 208.502 227.256 170.025 229.362 129.574C231.464 88.3102 264.452 60.333 330.052 76.3632C330.182 76.395 330.268 76.5248 330.241 76.6561L322.788 113.772C322.759 113.914 322.642 114.01 322.502 113.973C318.92 113.028 275.117 102.103 270.723 131.671C268.37 146.963 268.494 176.068 268.989 208.009L319.139 207.518C319.278 207.517 319.391 207.629 319.391 207.768V240.812C319.391 240.949 319.28 241.061 319.143 241.062L269.856 241.43L269.609 256.106H319.637C319.775 256.106 319.887 256.217 319.887 256.355L320.009 288.169C320.01 288.306 319.899 288.418 319.762 288.42L269.485 288.91H268.37V290.267H268.246ZM495.007 260.498C495.007 390.566 389.566 496.007 259.498 496.007C129.43 496.007 23.9889 390.566 23.9889 260.498C23.9889 130.43 129.43 24.9892 259.498 24.9892C389.566 24.9892 495.007 130.43 495.007 260.498ZM495.407 260.498C495.407 390.787 389.787 496.407 259.498 496.407C129.209 496.407 23.5889 390.787 23.5889 260.498C23.5889 130.209 129.209 24.5892 259.498 24.5892C389.787 24.5892 495.407 130.209 495.407 260.498Z" fill="black"/>
</svg>
