<svg width="20" height="20" viewBox="0 0 20 20" fill="none" xmlns="http://www.w3.org/2000/svg">
<circle cx="10" cy="10" r="10" fill="white"/>
<path fill-rule="evenodd" clip-rule="evenodd" d="M10 20C15.5228 20 20 15.5228 20 10C20 4.47715 15.5228 0 10 0C4.47715 0 0 4.47715 0 10C0 15.5228 4.47715 20 10 20ZM10.3371 11.1471L10.3509 17.0841C10.3512 17.2224 10.2392 17.3347 10.1009 17.3347H9.03008C8.89254 17.3347 8.78083 17.2236 8.78009 17.0861L8.74803 11.1566V11.1091H8.65736L7.52086 11.0973C7.3838 11.0959 7.27344 10.9844 7.27344 10.8474V10.0634C7.27344 9.92463 7.38641 9.81242 7.52515 9.81337L8.66213 9.82115H8.7528L8.76711 9.27938L7.52264 9.27542C7.38488 9.27498 7.27344 9.16318 7.27344 9.02542V8.25414C7.27344 8.11669 7.38439 8.00502 7.52184 8.00414L8.75757 7.99623C8.75757 7.99623 8.75757 6.51347 8.8387 4.95468C8.91729 3.4123 10.1156 2.35165 12.4944 2.85305C12.6255 2.88067 12.7072 3.00995 12.6808 3.14125L12.4898 4.09215C12.4612 4.23458 12.3178 4.32442 12.1747 4.29945C11.6625 4.21009 10.5673 4.12927 10.4326 5.03547C10.3419 5.62477 10.3467 6.74634 10.3658 7.97722L12.0556 7.96068C12.1946 7.95932 12.308 8.07164 12.308 8.21067V9.00272C12.308 9.14007 12.1972 9.25169 12.0599 9.25272L10.3992 9.26512L10.3896 9.83066H12.0781C12.2158 9.83066 12.3276 9.942 12.3281 10.0797L12.3309 10.8273C12.3315 10.9648 12.2209 11.0769 12.0834 11.0782L10.3849 11.0948H10.3419V11.1471H10.3371ZM18.691 9.99993C18.691 14.7998 14.7999 18.6908 10.0001 18.6908C5.20023 18.6908 1.30918 14.7998 1.30918 9.99993C1.30918 5.20007 5.20023 1.30902 10.0001 1.30902C14.7999 1.30902 18.691 5.20007 18.691 9.99993ZM19.091 9.99993C19.091 15.0207 15.0209 19.0908 10.0001 19.0908C4.97932 19.0908 0.90918 15.0207 0.90918 9.99993C0.90918 4.97916 4.97932 0.909017 10.0001 0.909017C15.0209 0.909017 19.091 4.97916 19.091 9.99993Z" fill="url(#paint0_linear)"/>
<defs>
<linearGradient id="paint0_linear" x1="10" y1="0" x2="10" y2="20" gradientUnits="userSpaceOnUse">
<stop stop-color="#F46868"/>
<stop offset="1" stop-color="#D94646"/>
</linearGradient>
</defs>
</svg>
